<svg width="1440" height="900" viewBox="0 0 1440 900" fill="none" xmlns="http://www.w3.org/2000/svg">
<rect width="1440" height="900" fill="#7945FF"/>
<g clip-path="url(#clip0_5_2247)">
<rect x="404" y="60" width="86" height="39" rx="19.5" fill="#5C2DD5"/>
<path d="M426.337 85V73.8H430.257L432.193 83.56H432.481L434.417 73.8H438.337V85H436.289V75.352H436.001L434.081 85H430.593L428.673 75.352H428.385V85H426.337ZM440.447 85V73.8H447.647V75.72H442.559V78.392H447.199V80.312H442.559V83.08H447.743V85H440.447ZM449.306 85V73.8H453.322L455.546 83.56H455.834V73.8H457.914V85H453.898L451.674 75.24H451.386V85H449.306ZM464.345 85.224C463.427 85.224 462.638 85.0587 461.977 84.728C461.326 84.3867 460.825 83.9067 460.473 83.288C460.131 82.6587 459.961 81.9173 459.961 81.064V73.8H462.073V81.128C462.073 81.8107 462.265 82.3493 462.649 82.744C463.043 83.1387 463.609 83.336 464.345 83.336C465.081 83.336 465.641 83.1387 466.025 82.744C466.419 82.3493 466.617 81.8107 466.617 81.128V73.8H468.729V81.064C468.729 81.9173 468.553 82.6587 468.201 83.288C467.859 83.9067 467.358 84.3867 466.697 84.728C466.046 85.0587 465.262 85.224 464.345 85.224Z" fill="white"/>
</g>
<g clip-path="url(#clip1_5_2247)">
<rect x="928" y="60" width="108" height="39" rx="19.5" fill="#5C2DD5"/>
<path d="M950.478 85V73.8H955.342C956.046 73.8 956.659 73.9227 957.182 74.168C957.705 74.4133 958.11 74.76 958.398 75.208C958.686 75.656 958.83 76.184 958.83 76.792V76.984C958.83 77.656 958.67 78.2 958.35 78.616C958.03 79.032 957.635 79.336 957.166 79.528V79.816C957.593 79.8373 957.923 79.9867 958.158 80.264C958.393 80.5307 958.51 80.888 958.51 81.336V85H956.398V81.64C956.398 81.384 956.329 81.176 956.19 81.016C956.062 80.856 955.843 80.776 955.534 80.776H952.59V85H950.478ZM952.59 78.856H955.118C955.619 78.856 956.009 78.7227 956.286 78.456C956.574 78.1787 956.718 77.816 956.718 77.368V77.208C956.718 76.76 956.579 76.4027 956.302 76.136C956.025 75.8587 955.63 75.72 955.118 75.72H952.59V78.856ZM960.587 85V73.8H967.787V75.72H962.699V78.392H967.339V80.312H962.699V83.08H967.883V85H960.587ZM973.335 85.224C972.471 85.224 971.708 85.0693 971.047 84.76C970.385 84.4507 969.868 84.008 969.495 83.432C969.121 82.856 968.935 82.1627 968.935 81.352V80.904H971.015V81.352C971.015 82.024 971.223 82.5307 971.639 82.872C972.055 83.2027 972.62 83.368 973.335 83.368C974.06 83.368 974.599 83.224 974.951 82.936C975.313 82.648 975.495 82.28 975.495 81.832C975.495 81.5227 975.404 81.272 975.223 81.08C975.052 80.888 974.796 80.7333 974.455 80.616C974.124 80.488 973.719 80.3707 973.239 80.264L972.871 80.184C972.103 80.0133 971.441 79.8 970.887 79.544C970.343 79.2773 969.921 78.9307 969.623 78.504C969.335 78.0773 969.191 77.5227 969.191 76.84C969.191 76.1573 969.351 75.576 969.671 75.096C970.001 74.6053 970.46 74.232 971.047 73.976C971.644 73.7093 972.343 73.576 973.143 73.576C973.943 73.576 974.652 73.7147 975.271 73.992C975.9 74.2587 976.391 74.664 976.743 75.208C977.105 75.7413 977.287 76.4133 977.287 77.224V77.704H975.207V77.224C975.207 76.7973 975.121 76.456 974.951 76.2C974.791 75.9333 974.556 75.7413 974.247 75.624C973.937 75.496 973.569 75.432 973.143 75.432C972.503 75.432 972.028 75.5547 971.719 75.8C971.42 76.0347 971.271 76.36 971.271 76.776C971.271 77.0533 971.34 77.288 971.479 77.48C971.628 77.672 971.847 77.832 972.135 77.96C972.423 78.088 972.791 78.2 973.239 78.296L973.607 78.376C974.407 78.5467 975.1 78.7653 975.687 79.032C976.284 79.2987 976.748 79.6507 977.079 80.088C977.409 80.5253 977.575 81.0853 977.575 81.768C977.575 82.4507 977.399 83.0533 977.047 83.576C976.705 84.088 976.215 84.4933 975.575 84.792C974.945 85.08 974.199 85.224 973.335 85.224ZM981.382 85V75.72H978.118V73.8H986.758V75.72H983.494V85H981.382ZM986.397 85L989.341 73.8H993.021L995.965 85H993.789L993.181 82.536H989.181L988.573 85H986.397ZM989.677 80.584H992.685L991.325 75.128H991.037L989.677 80.584ZM997.306 85V73.8H1002.17C1002.87 73.8 1003.49 73.9227 1004.01 74.168C1004.53 74.4133 1004.94 74.76 1005.23 75.208C1005.51 75.656 1005.66 76.184 1005.66 76.792V76.984C1005.66 77.656 1005.5 78.2 1005.18 78.616C1004.86 79.032 1004.46 79.336 1003.99 79.528V79.816C1004.42 79.8373 1004.75 79.9867 1004.99 80.264C1005.22 80.5307 1005.34 80.888 1005.34 81.336V85H1003.23V81.64C1003.23 81.384 1003.16 81.176 1003.02 81.016C1002.89 80.856 1002.67 80.776 1002.36 80.776H999.418V85H997.306ZM999.418 78.856H1001.95C1002.45 78.856 1002.84 78.7227 1003.11 78.456C1003.4 78.1787 1003.55 77.816 1003.55 77.368V77.208C1003.55 76.76 1003.41 76.4027 1003.13 76.136C1002.85 75.8587 1002.46 75.72 1001.95 75.72H999.418V78.856ZM1009.82 85V75.72H1006.56V73.8H1015.2V75.72H1011.93V85H1009.82Z" fill="white"/>
</g>
<g filter="url(#filter0_d_5_2247)">
<circle cx="704" cy="63" r="10" fill="#FD6687"/>
<circle cx="704" cy="63" r="11.5" stroke="black" stroke-width="3"/>
</g>
<g filter="url(#filter1_d_5_2247)">
<circle cx="736" cy="95" r="10" fill="#FD6687"/>
<circle cx="736" cy="95" r="11.5" stroke="black" stroke-width="3"/>
</g>
<g filter="url(#filter2_d_5_2247)">
<circle cx="736" cy="63" r="10" fill="#FFCE67"/>
<circle cx="736" cy="63" r="11.5" stroke="black" stroke-width="3"/>
</g>
<g filter="url(#filter3_d_5_2247)">
<circle cx="704" cy="95" r="10" fill="#FFCE67"/>
<circle cx="704" cy="95" r="11.5" stroke="black" stroke-width="3"/>
</g>
<path d="M0 760C0 726.863 26.8629 700 60 700H1380C1413.14 700 1440 726.863 1440 760V900H0V760Z" fill="#5C2DD5"/>
<g filter="url(#filter4_d_5_2247)">
<mask id="path-14-inside-1_5_2247" fill="white">
<path fill-rule="evenodd" clip-rule="evenodd" d="M444 156C421.909 156 404 173.909 404 196V700C404 722.091 421.909 740 444 740H996C1018.09 740 1036 722.091 1036 700V196C1036 173.909 1018.09 156 996 156H444ZM456 240C473.673 240 488 225.673 488 208C488 190.327 473.673 176 456 176C438.327 176 424 190.327 424 208C424 225.673 438.327 240 456 240ZM544 240C561.673 240 576 225.673 576 208C576 190.327 561.673 176 544 176C526.327 176 512 190.327 512 208C512 225.673 526.327 240 544 240ZM664 208C664 225.673 649.673 240 632 240C614.327 240 600 225.673 600 208C600 190.327 614.327 176 632 176C649.673 176 664 190.327 664 208ZM720 240C737.673 240 752 225.673 752 208C752 190.327 737.673 176 720 176C702.327 176 688 190.327 688 208C688 225.673 702.327 240 720 240ZM840 208C840 225.673 825.673 240 808 240C790.327 240 776 225.673 776 208C776 190.327 790.327 176 808 176C825.673 176 840 190.327 840 208ZM896 240C913.673 240 928 225.673 928 208C928 190.327 913.673 176 896 176C878.327 176 864 190.327 864 208C864 225.673 878.327 240 896 240ZM1016 208C1016 225.673 1001.67 240 984 240C966.327 240 952 225.673 952 208C952 190.327 966.327 176 984 176C1001.67 176 1016 190.327 1016 208ZM456 328C473.673 328 488 313.673 488 296C488 278.327 473.673 264 456 264C438.327 264 424 278.327 424 296C424 313.673 438.327 328 456 328ZM576 296C576 313.673 561.673 328 544 328C526.327 328 512 313.673 512 296C512 278.327 526.327 264 544 264C561.673 264 576 278.327 576 296ZM632 328C649.673 328 664 313.673 664 296C664 278.327 649.673 264 632 264C614.327 264 600 278.327 600 296C600 313.673 614.327 328 632 328ZM752 296C752 313.673 737.673 328 720 328C702.327 328 688 313.673 688 296C688 278.327 702.327 264 720 264C737.673 264 752 278.327 752 296ZM808 328C825.673 328 840 313.673 840 296C840 278.327 825.673 264 808 264C790.327 264 776 278.327 776 296C776 313.673 790.327 328 808 328ZM928 296C928 313.673 913.673 328 896 328C878.327 328 864 313.673 864 296C864 278.327 878.327 264 896 264C913.673 264 928 278.327 928 296ZM984 328C1001.67 328 1016 313.673 1016 296C1016 278.327 1001.67 264 984 264C966.327 264 952 278.327 952 296C952 313.673 966.327 328 984 328ZM488 384C488 401.673 473.673 416 456 416C438.327 416 424 401.673 424 384C424 366.327 438.327 352 456 352C473.673 352 488 366.327 488 384ZM544 416C561.673 416 576 401.673 576 384C576 366.327 561.673 352 544 352C526.327 352 512 366.327 512 384C512 401.673 526.327 416 544 416ZM664 384C664 401.673 649.673 416 632 416C614.327 416 600 401.673 600 384C600 366.327 614.327 352 632 352C649.673 352 664 366.327 664 384ZM720 416C737.673 416 752 401.673 752 384C752 366.327 737.673 352 720 352C702.327 352 688 366.327 688 384C688 401.673 702.327 416 720 416ZM840 384C840 401.673 825.673 416 808 416C790.327 416 776 401.673 776 384C776 366.327 790.327 352 808 352C825.673 352 840 366.327 840 384ZM896 416C913.673 416 928 401.673 928 384C928 366.327 913.673 352 896 352C878.327 352 864 366.327 864 384C864 401.673 878.327 416 896 416ZM1016 384C1016 401.673 1001.67 416 984 416C966.327 416 952 401.673 952 384C952 366.327 966.327 352 984 352C1001.67 352 1016 366.327 1016 384ZM456 504C473.673 504 488 489.673 488 472C488 454.327 473.673 440 456 440C438.327 440 424 454.327 424 472C424 489.673 438.327 504 456 504ZM576 472C576 489.673 561.673 504 544 504C526.327 504 512 489.673 512 472C512 454.327 526.327 440 544 440C561.673 440 576 454.327 576 472ZM632 504C649.673 504 664 489.673 664 472C664 454.327 649.673 440 632 440C614.327 440 600 454.327 600 472C600 489.673 614.327 504 632 504ZM752 472C752 489.673 737.673 504 720 504C702.327 504 688 489.673 688 472C688 454.327 702.327 440 720 440C737.673 440 752 454.327 752 472ZM808 504C825.673 504 840 489.673 840 472C840 454.327 825.673 440 808 440C790.327 440 776 454.327 776 472C776 489.673 790.327 504 808 504ZM928 472C928 489.673 913.673 504 896 504C878.327 504 864 489.673 864 472C864 454.327 878.327 440 896 440C913.673 440 928 454.327 928 472ZM984 504C1001.67 504 1016 489.673 1016 472C1016 454.327 1001.67 440 984 440C966.327 440 952 454.327 952 472C952 489.673 966.327 504 984 504ZM488 560C488 577.673 473.673 592 456 592C438.327 592 424 577.673 424 560C424 542.327 438.327 528 456 528C473.673 528 488 542.327 488 560ZM544 592C561.673 592 576 577.673 576 560C576 542.327 561.673 528 544 528C526.327 528 512 542.327 512 560C512 577.673 526.327 592 544 592ZM664 560C664 577.673 649.673 592 632 592C614.327 592 600 577.673 600 560C600 542.327 614.327 528 632 528C649.673 528 664 542.327 664 560ZM720 592C737.673 592 752 577.673 752 560C752 542.327 737.673 528 720 528C702.327 528 688 542.327 688 560C688 577.673 702.327 592 720 592ZM840 560C840 577.673 825.673 592 808 592C790.327 592 776 577.673 776 560C776 542.327 790.327 528 808 528C825.673 528 840 542.327 840 560ZM896 592C913.673 592 928 577.673 928 560C928 542.327 913.673 528 896 528C878.327 528 864 542.327 864 560C864 577.673 878.327 592 896 592ZM1016 560C1016 577.673 1001.67 592 984 592C966.327 592 952 577.673 952 560C952 542.327 966.327 528 984 528C1001.67 528 1016 542.327 1016 560ZM456 680C473.673 680 488 665.673 488 648C488 630.327 473.673 616 456 616C438.327 616 424 630.327 424 648C424 665.673 438.327 680 456 680ZM576 648C576 665.673 561.673 680 544 680C526.327 680 512 665.673 512 648C512 630.327 526.327 616 544 616C561.673 616 576 630.327 576 648ZM752 648C752 665.673 737.673 680 720 680C702.327 680 688 665.673 688 648C688 630.327 702.327 616 720 616C737.673 616 752 630.327 752 648ZM632 680C649.673 680 664 665.673 664 648C664 630.327 649.673 616 632 616C614.327 616 600 630.327 600 648C600 665.673 614.327 680 632 680ZM840 648C840 665.673 825.673 680 808 680C790.327 680 776 665.673 776 648C776 630.327 790.327 616 808 616C825.673 616 840 630.327 840 648ZM896 680C913.673 680 928 665.673 928 648C928 630.327 913.673 616 896 616C878.327 616 864 630.327 864 648C864 665.673 878.327 680 896 680ZM1016 648C1016 665.673 1001.67 680 984 680C966.327 680 952 665.673 952 648C952 630.327 966.327 616 984 616C1001.67 616 1016 630.327 1016 648Z"/>
</mask>
<path fill-rule="evenodd" clip-rule="evenodd" d="M444 156C421.909 156 404 173.909 404 196V700C404 722.091 421.909 740 444 740H996C1018.09 740 1036 722.091 1036 700V196C1036 173.909 1018.09 156 996 156H444ZM456 240C473.673 240 488 225.673 488 208C488 190.327 473.673 176 456 176C438.327 176 424 190.327 424 208C424 225.673 438.327 240 456 240ZM544 240C561.673 240 576 225.673 576 208C576 190.327 561.673 176 544 176C526.327 176 512 190.327 512 208C512 225.673 526.327 240 544 240ZM664 208C664 225.673 649.673 240 632 240C614.327 240 600 225.673 600 208C600 190.327 614.327 176 632 176C649.673 176 664 190.327 664 208ZM720 240C737.673 240 752 225.673 752 208C752 190.327 737.673 176 720 176C702.327 176 688 190.327 688 208C688 225.673 702.327 240 720 240ZM840 208C840 225.673 825.673 240 808 240C790.327 240 776 225.673 776 208C776 190.327 790.327 176 808 176C825.673 176 840 190.327 840 208ZM896 240C913.673 240 928 225.673 928 208C928 190.327 913.673 176 896 176C878.327 176 864 190.327 864 208C864 225.673 878.327 240 896 240ZM1016 208C1016 225.673 1001.67 240 984 240C966.327 240 952 225.673 952 208C952 190.327 966.327 176 984 176C1001.67 176 1016 190.327 1016 208ZM456 328C473.673 328 488 313.673 488 296C488 278.327 473.673 264 456 264C438.327 264 424 278.327 424 296C424 313.673 438.327 328 456 328ZM576 296C576 313.673 561.673 328 544 328C526.327 328 512 313.673 512 296C512 278.327 526.327 264 544 264C561.673 264 576 278.327 576 296ZM632 328C649.673 328 664 313.673 664 296C664 278.327 649.673 264 632 264C614.327 264 600 278.327 600 296C600 313.673 614.327 328 632 328ZM752 296C752 313.673 737.673 328 720 328C702.327 328 688 313.673 688 296C688 278.327 702.327 264 720 264C737.673 264 752 278.327 752 296ZM808 328C825.673 328 840 313.673 840 296C840 278.327 825.673 264 808 264C790.327 264 776 278.327 776 296C776 313.673 790.327 328 808 328ZM928 296C928 313.673 913.673 328 896 328C878.327 328 864 313.673 864 296C864 278.327 878.327 264 896 264C913.673 264 928 278.327 928 296ZM984 328C1001.67 328 1016 313.673 1016 296C1016 278.327 1001.67 264 984 264C966.327 264 952 278.327 952 296C952 313.673 966.327 328 984 328ZM488 384C488 401.673 473.673 416 456 416C438.327 416 424 401.673 424 384C424 366.327 438.327 352 456 352C473.673 352 488 366.327 488 384ZM544 416C561.673 416 576 401.673 576 384C576 366.327 561.673 352 544 352C526.327 352 512 366.327 512 384C512 401.673 526.327 416 544 416ZM664 384C664 401.673 649.673 416 632 416C614.327 416 600 401.673 600 384C600 366.327 614.327 352 632 352C649.673 352 664 366.327 664 384ZM720 416C737.673 416 752 401.673 752 384C752 366.327 737.673 352 720 352C702.327 352 688 366.327 688 384C688 401.673 702.327 416 720 416ZM840 384C840 401.673 825.673 416 808 416C790.327 416 776 401.673 776 384C776 366.327 790.327 352 808 352C825.673 352 840 366.327 840 384ZM896 416C913.673 416 928 401.673 928 384C928 366.327 913.673 352 896 352C878.327 352 864 366.327 864 384C864 401.673 878.327 416 896 416ZM1016 384C1016 401.673 1001.67 416 984 416C966.327 416 952 401.673 952 384C952 366.327 966.327 352 984 352C1001.67 352 1016 366.327 1016 384ZM456 504C473.673 504 488 489.673 488 472C488 454.327 473.673 440 456 440C438.327 440 424 454.327 424 472C424 489.673 438.327 504 456 504ZM576 472C576 489.673 561.673 504 544 504C526.327 504 512 489.673 512 472C512 454.327 526.327 440 544 440C561.673 440 576 454.327 576 472ZM632 504C649.673 504 664 489.673 664 472C664 454.327 649.673 440 632 440C614.327 440 600 454.327 600 472C600 489.673 614.327 504 632 504ZM752 472C752 489.673 737.673 504 720 504C702.327 504 688 489.673 688 472C688 454.327 702.327 440 720 440C737.673 440 752 454.327 752 472ZM808 504C825.673 504 840 489.673 840 472C840 454.327 825.673 440 808 440C790.327 440 776 454.327 776 472C776 489.673 790.327 504 808 504ZM928 472C928 489.673 913.673 504 896 504C878.327 504 864 489.673 864 472C864 454.327 878.327 440 896 440C913.673 440 928 454.327 928 472ZM984 504C1001.67 504 1016 489.673 1016 472C1016 454.327 1001.67 440 984 440C966.327 440 952 454.327 952 472C952 489.673 966.327 504 984 504ZM488 560C488 577.673 473.673 592 456 592C438.327 592 424 577.673 424 560C424 542.327 438.327 528 456 528C473.673 528 488 542.327 488 560ZM544 592C561.673 592 576 577.673 576 560C576 542.327 561.673 528 544 528C526.327 528 512 542.327 512 560C512 577.673 526.327 592 544 592ZM664 560C664 577.673 649.673 592 632 592C614.327 592 600 577.673 600 560C600 542.327 614.327 528 632 528C649.673 528 664 542.327 664 560ZM720 592C737.673 592 752 577.673 752 560C752 542.327 737.673 528 720 528C702.327 528 688 542.327 688 560C688 577.673 702.327 592 720 592ZM840 560C840 577.673 825.673 592 808 592C790.327 592 776 577.673 776 560C776 542.327 790.327 528 808 528C825.673 528 840 542.327 840 560ZM896 592C913.673 592 928 577.673 928 560C928 542.327 913.673 528 896 528C878.327 528 864 542.327 864 560C864 577.673 878.327 592 896 592ZM1016 560C1016 577.673 1001.67 592 984 592C966.327 592 952 577.673 952 560C952 542.327 966.327 528 984 528C1001.67 528 1016 542.327 1016 560ZM456 680C473.673 680 488 665.673 488 648C488 630.327 473.673 616 456 616C438.327 616 424 630.327 424 648C424 665.673 438.327 680 456 680ZM576 648C576 665.673 561.673 680 544 680C526.327 680 512 665.673 512 648C512 630.327 526.327 616 544 616C561.673 616 576 630.327 576 648ZM752 648C752 665.673 737.673 680 720 680C702.327 680 688 665.673 688 648C688 630.327 702.327 616 720 616C737.673 616 752 630.327 752 648ZM632 680C649.673 680 664 665.673 664 648C664 630.327 649.673 616 632 616C614.327 616 600 630.327 600 648C600 665.673 614.327 680 632 680ZM840 648C840 665.673 825.673 680 808 680C790.327 680 776 665.673 776 648C776 630.327 790.327 616 808 616C825.673 616 840 630.327 840 648ZM896 680C913.673 680 928 665.673 928 648C928 630.327 913.673 616 896 616C878.327 616 864 630.327 864 648C864 665.673 878.327 680 896 680ZM1016 648C1016 665.673 1001.67 680 984 680C966.327 680 952 665.673 952 648C952 630.327 966.327 616 984 616C1001.67 616 1016 630.327 1016 648Z" fill="black"/>
<path d="M407 196C407 175.565 423.565 159 444 159V153C420.252 153 401 172.252 401 196H407ZM407 700V196H401V700H407ZM444 737C423.565 737 407 720.435 407 700H401C401 723.748 420.252 743 444 743V737ZM996 737H444V743H996V737ZM1033 700C1033 720.435 1016.43 737 996 737V743C1019.75 743 1039 723.748 1039 700H1033ZM1033 196V700H1039V196H1033ZM996 159C1016.43 159 1033 175.565 1033 196H1039C1039 172.252 1019.75 153 996 153V159ZM444 159H996V153H444V159ZM485 208C485 224.016 472.016 237 456 237V243C475.33 243 491 227.33 491 208H485ZM456 179C472.016 179 485 191.984 485 208H491C491 188.67 475.33 173 456 173V179ZM427 208C427 191.984 439.984 179 456 179V173C436.67 173 421 188.67 421 208H427ZM456 237C439.984 237 427 224.016 427 208H421C421 227.33 436.67 243 456 243V237ZM573 208C573 224.016 560.016 237 544 237V243C563.33 243 579 227.33 579 208H573ZM544 179C560.016 179 573 191.984 573 208H579C579 188.67 563.33 173 544 173V179ZM515 208C515 191.984 527.984 179 544 179V173C524.67 173 509 188.67 509 208H515ZM544 237C527.984 237 515 224.016 515 208H509C509 227.33 524.67 243 544 243V237ZM632 243C651.33 243 667 227.33 667 208H661C661 224.016 648.016 237 632 237V243ZM597 208C597 227.33 612.67 243 632 243V237C615.984 237 603 224.016 603 208H597ZM632 173C612.67 173 597 188.67 597 208H603C603 191.984 615.984 179 632 179V173ZM667 208C667 188.67 651.33 173 632 173V179C648.016 179 661 191.984 661 208H667ZM749 208C749 224.016 736.016 237 720 237V243C739.33 243 755 227.33 755 208H749ZM720 179C736.016 179 749 191.984 749 208H755C755 188.67 739.33 173 720 173V179ZM691 208C691 191.984 703.984 179 720 179V173C700.67 173 685 188.67 685 208H691ZM720 237C703.984 237 691 224.016 691 208H685C685 227.33 700.67 243 720 243V237ZM808 243C827.33 243 843 227.33 843 208H837C837 224.016 824.016 237 808 237V243ZM773 208C773 227.33 788.67 243 808 243V237C791.984 237 779 224.016 779 208H773ZM808 173C788.67 173 773 188.67 773 208H779C779 191.984 791.984 179 808 179V173ZM843 208C843 188.67 827.33 173 808 173V179C824.016 179 837 191.984 837 208H843ZM925 208C925 224.016 912.016 237 896 237V243C915.33 243 931 227.33 931 208H925ZM896 179C912.016 179 925 191.984 925 208H931C931 188.67 915.33 173 896 173V179ZM867 208C867 191.984 879.984 179 896 179V173C876.67 173 861 188.67 861 208H867ZM896 237C879.984 237 867 224.016 867 208H861C861 227.33 876.67 243 896 243V237ZM984 243C1003.33 243 1019 227.33 1019 208H1013C1013 224.016 1000.02 237 984 237V243ZM949 208C949 227.33 964.67 243 984 243V237C967.984 237 955 224.016 955 208H949ZM984 173C964.67 173 949 188.67 949 208H955C955 191.984 967.984 179 984 179V173ZM1019 208C1019 188.67 1003.33 173 984 173V179C1000.02 179 1013 191.984 1013 208H1019ZM485 296C485 312.016 472.016 325 456 325V331C475.33 331 491 315.33 491 296H485ZM456 267C472.016 267 485 279.984 485 296H491C491 276.67 475.33 261 456 261V267ZM427 296C427 279.984 439.984 267 456 267V261C436.67 261 421 276.67 421 296H427ZM456 325C439.984 325 427 312.016 427 296H421C421 315.33 436.67 331 456 331V325ZM544 331C563.33 331 579 315.33 579 296H573C573 312.016 560.016 325 544 325V331ZM509 296C509 315.33 524.67 331 544 331V325C527.984 325 515 312.016 515 296H509ZM544 261C524.67 261 509 276.67 509 296H515C515 279.984 527.984 267 544 267V261ZM579 296C579 276.67 563.33 261 544 261V267C560.016 267 573 279.984 573 296H579ZM661 296C661 312.016 648.016 325 632 325V331C651.33 331 667 315.33 667 296H661ZM632 267C648.016 267 661 279.984 661 296H667C667 276.67 651.33 261 632 261V267ZM603 296C603 279.984 615.984 267 632 267V261C612.67 261 597 276.67 597 296H603ZM632 325C615.984 325 603 312.016 603 296H597C597 315.33 612.67 331 632 331V325ZM720 331C739.33 331 755 315.33 755 296H749C749 312.016 736.016 325 720 325V331ZM685 296C685 315.33 700.67 331 720 331V325C703.984 325 691 312.016 691 296H685ZM720 261C700.67 261 685 276.67 685 296H691C691 279.984 703.984 267 720 267V261ZM755 296C755 276.67 739.33 261 720 261V267C736.016 267 749 279.984 749 296H755ZM837 296C837 312.016 824.016 325 808 325V331C827.33 331 843 315.33 843 296H837ZM808 267C824.016 267 837 279.984 837 296H843C843 276.67 827.33 261 808 261V267ZM779 296C779 279.984 791.984 267 808 267V261C788.67 261 773 276.67 773 296H779ZM808 325C791.984 325 779 312.016 779 296H773C773 315.33 788.67 331 808 331V325ZM896 331C915.33 331 931 315.33 931 296H925C925 312.016 912.016 325 896 325V331ZM861 296C861 315.33 876.67 331 896 331V325C879.984 325 867 312.016 867 296H861ZM896 261C876.67 261 861 276.67 861 296H867C867 279.984 879.984 267 896 267V261ZM931 296C931 276.67 915.33 261 896 261V267C912.016 267 925 279.984 925 296H931ZM1013 296C1013 312.016 1000.02 325 984 325V331C1003.33 331 1019 315.33 1019 296H1013ZM984 267C1000.02 267 1013 279.984 1013 296H1019C1019 276.67 1003.33 261 984 261V267ZM955 296C955 279.984 967.984 267 984 267V261C964.67 261 949 276.67 949 296H955ZM984 325C967.984 325 955 312.016 955 296H949C949 315.33 964.67 331 984 331V325ZM456 419C475.33 419 491 403.33 491 384H485C485 400.016 472.016 413 456 413V419ZM421 384C421 403.33 436.67 419 456 419V413C439.984 413 427 400.016 427 384H421ZM456 349C436.67 349 421 364.67 421 384H427C427 367.984 439.984 355 456 355V349ZM491 384C491 364.67 475.33 349 456 349V355C472.016 355 485 367.984 485 384H491ZM573 384C573 400.016 560.016 413 544 413V419C563.33 419 579 403.33 579 384H573ZM544 355C560.016 355 573 367.984 573 384H579C579 364.67 563.33 349 544 349V355ZM515 384C515 367.984 527.984 355 544 355V349C524.67 349 509 364.67 509 384H515ZM544 413C527.984 413 515 400.016 515 384H509C509 403.33 524.67 419 544 419V413ZM632 419C651.33 419 667 403.33 667 384H661C661 400.016 648.016 413 632 413V419ZM597 384C597 403.33 612.67 419 632 419V413C615.984 413 603 400.016 603 384H597ZM632 349C612.67 349 597 364.67 597 384H603C603 367.984 615.984 355 632 355V349ZM667 384C667 364.67 651.33 349 632 349V355C648.016 355 661 367.984 661 384H667ZM749 384C749 400.016 736.016 413 720 413V419C739.33 419 755 403.33 755 384H749ZM720 355C736.016 355 749 367.984 749 384H755C755 364.67 739.33 349 720 349V355ZM691 384C691 367.984 703.984 355 720 355V349C700.67 349 685 364.67 685 384H691ZM720 413C703.984 413 691 400.016 691 384H685C685 403.33 700.67 419 720 419V413ZM808 419C827.33 419 843 403.33 843 384H837C837 400.016 824.016 413 808 413V419ZM773 384C773 403.33 788.67 419 808 419V413C791.984 413 779 400.016 779 384H773ZM808 349C788.67 349 773 364.67 773 384H779C779 367.984 791.984 355 808 355V349ZM843 384C843 364.67 827.33 349 808 349V355C824.016 355 837 367.984 837 384H843ZM925 384C925 400.016 912.016 413 896 413V419C915.33 419 931 403.33 931 384H925ZM896 355C912.016 355 925 367.984 925 384H931C931 364.67 915.33 349 896 349V355ZM867 384C867 367.984 879.984 355 896 355V349C876.67 349 861 364.67 861 384H867ZM896 413C879.984 413 867 400.016 867 384H861C861 403.33 876.67 419 896 419V413ZM984 419C1003.33 419 1019 403.33 1019 384H1013C1013 400.016 1000.02 413 984 413V419ZM949 384C949 403.33 964.67 419 984 419V413C967.984 413 955 400.016 955 384H949ZM984 349C964.67 349 949 364.67 949 384H955C955 367.984 967.984 355 984 355V349ZM1019 384C1019 364.67 1003.33 349 984 349V355C1000.02 355 1013 367.984 1013 384H1019ZM485 472C485 488.016 472.016 501 456 501V507C475.33 507 491 491.33 491 472H485ZM456 443C472.016 443 485 455.984 485 472H491C491 452.67 475.33 437 456 437V443ZM427 472C427 455.984 439.984 443 456 443V437C436.67 437 421 452.67 421 472H427ZM456 501C439.984 501 427 488.016 427 472H421C421 491.33 436.67 507 456 507V501ZM544 507C563.33 507 579 491.33 579 472H573C573 488.016 560.016 501 544 501V507ZM509 472C509 491.33 524.67 507 544 507V501C527.984 501 515 488.016 515 472H509ZM544 437C524.67 437 509 452.67 509 472H515C515 455.984 527.984 443 544 443V437ZM579 472C579 452.67 563.33 437 544 437V443C560.016 443 573 455.984 573 472H579ZM661 472C661 488.016 648.016 501 632 501V507C651.33 507 667 491.33 667 472H661ZM632 443C648.016 443 661 455.984 661 472H667C667 452.67 651.33 437 632 437V443ZM603 472C603 455.984 615.984 443 632 443V437C612.67 437 597 452.67 597 472H603ZM632 501C615.984 501 603 488.016 603 472H597C597 491.33 612.67 507 632 507V501ZM720 507C739.33 507 755 491.33 755 472H749C749 488.016 736.016 501 720 501V507ZM685 472C685 491.33 700.67 507 720 507V501C703.984 501 691 488.016 691 472H685ZM720 437C700.67 437 685 452.67 685 472H691C691 455.984 703.984 443 720 443V437ZM755 472C755 452.67 739.33 437 720 437V443C736.016 443 749 455.984 749 472H755ZM837 472C837 488.016 824.016 501 808 501V507C827.33 507 843 491.33 843 472H837ZM808 443C824.016 443 837 455.984 837 472H843C843 452.67 827.33 437 808 437V443ZM779 472C779 455.984 791.984 443 808 443V437C788.67 437 773 452.67 773 472H779ZM808 501C791.984 501 779 488.016 779 472H773C773 491.33 788.67 507 808 507V501ZM896 507C915.33 507 931 491.33 931 472H925C925 488.016 912.016 501 896 501V507ZM861 472C861 491.33 876.67 507 896 507V501C879.984 501 867 488.016 867 472H861ZM896 437C876.67 437 861 452.67 861 472H867C867 455.984 879.984 443 896 443V437ZM931 472C931 452.67 915.33 437 896 437V443C912.016 443 925 455.984 925 472H931ZM1013 472C1013 488.016 1000.02 501 984 501V507C1003.33 507 1019 491.33 1019 472H1013ZM984 443C1000.02 443 1013 455.984 1013 472H1019C1019 452.67 1003.33 437 984 437V443ZM955 472C955 455.984 967.984 443 984 443V437C964.67 437 949 452.67 949 472H955ZM984 501C967.984 501 955 488.016 955 472H949C949 491.33 964.67 507 984 507V501ZM456 595C475.33 595 491 579.33 491 560H485C485 576.016 472.016 589 456 589V595ZM421 560C421 579.33 436.67 595 456 595V589C439.984 589 427 576.016 427 560H421ZM456 525C436.67 525 421 540.67 421 560H427C427 543.984 439.984 531 456 531V525ZM491 560C491 540.67 475.33 525 456 525V531C472.016 531 485 543.984 485 560H491ZM573 560C573 576.016 560.016 589 544 589V595C563.33 595 579 579.33 579 560H573ZM544 531C560.016 531 573 543.984 573 560H579C579 540.67 563.33 525 544 525V531ZM515 560C515 543.984 527.984 531 544 531V525C524.67 525 509 540.67 509 560H515ZM544 589C527.984 589 515 576.016 515 560H509C509 579.33 524.67 595 544 595V589ZM632 595C651.33 595 667 579.33 667 560H661C661 576.016 648.016 589 632 589V595ZM597 560C597 579.33 612.67 595 632 595V589C615.984 589 603 576.016 603 560H597ZM632 525C612.67 525 597 540.67 597 560H603C603 543.984 615.984 531 632 531V525ZM667 560C667 540.67 651.33 525 632 525V531C648.016 531 661 543.984 661 560H667ZM749 560C749 576.016 736.016 589 720 589V595C739.33 595 755 579.33 755 560H749ZM720 531C736.016 531 749 543.984 749 560H755C755 540.67 739.33 525 720 525V531ZM691 560C691 543.984 703.984 531 720 531V525C700.67 525 685 540.67 685 560H691ZM720 589C703.984 589 691 576.016 691 560H685C685 579.33 700.67 595 720 595V589ZM808 595C827.33 595 843 579.33 843 560H837C837 576.016 824.016 589 808 589V595ZM773 560C773 579.33 788.67 595 808 595V589C791.984 589 779 576.016 779 560H773ZM808 525C788.67 525 773 540.67 773 560H779C779 543.984 791.984 531 808 531V525ZM843 560C843 540.67 827.33 525 808 525V531C824.016 531 837 543.984 837 560H843ZM925 560C925 576.016 912.016 589 896 589V595C915.33 595 931 579.33 931 560H925ZM896 531C912.016 531 925 543.984 925 560H931C931 540.67 915.33 525 896 525V531ZM867 560C867 543.984 879.984 531 896 531V525C876.67 525 861 540.67 861 560H867ZM896 589C879.984 589 867 576.016 867 560H861C861 579.33 876.67 595 896 595V589ZM984 595C1003.33 595 1019 579.33 1019 560H1013C1013 576.016 1000.02 589 984 589V595ZM949 560C949 579.33 964.67 595 984 595V589C967.984 589 955 576.016 955 560H949ZM984 525C964.67 525 949 540.67 949 560H955C955 543.984 967.984 531 984 531V525ZM1019 560C1019 540.67 1003.33 525 984 525V531C1000.02 531 1013 543.984 1013 560H1019ZM485 648C485 664.016 472.016 677 456 677V683C475.33 683 491 667.33 491 648H485ZM456 619C472.016 619 485 631.984 485 648H491C491 628.67 475.33 613 456 613V619ZM427 648C427 631.984 439.984 619 456 619V613C436.67 613 421 628.67 421 648H427ZM456 677C439.984 677 427 664.016 427 648H421C421 667.33 436.67 683 456 683V677ZM544 683C563.33 683 579 667.33 579 648H573C573 664.016 560.016 677 544 677V683ZM509 648C509 667.33 524.67 683 544 683V677C527.984 677 515 664.016 515 648H509ZM544 613C524.67 613 509 628.67 509 648H515C515 631.984 527.984 619 544 619V613ZM579 648C579 628.67 563.33 613 544 613V619C560.016 619 573 631.984 573 648H579ZM720 683C739.33 683 755 667.33 755 648H749C749 664.016 736.016 677 720 677V683ZM685 648C685 667.33 700.67 683 720 683V677C703.984 677 691 664.016 691 648H685ZM720 613C700.67 613 685 628.67 685 648H691C691 631.984 703.984 619 720 619V613ZM755 648C755 628.67 739.33 613 720 613V619C736.016 619 749 631.984 749 648H755ZM661 648C661 664.016 648.016 677 632 677V683C651.33 683 667 667.33 667 648H661ZM632 619C648.016 619 661 631.984 661 648H667C667 628.67 651.33 613 632 613V619ZM603 648C603 631.984 615.984 619 632 619V613C612.67 613 597 628.67 597 648H603ZM632 677C615.984 677 603 664.016 603 648H597C597 667.33 612.67 683 632 683V677ZM808 683C827.33 683 843 667.33 843 648H837C837 664.016 824.016 677 808 677V683ZM773 648C773 667.33 788.67 683 808 683V677C791.984 677 779 664.016 779 648H773ZM808 613C788.67 613 773 628.67 773 648H779C779 631.984 791.984 619 808 619V613ZM843 648C843 628.67 827.33 613 808 613V619C824.016 619 837 631.984 837 648H843ZM925 648C925 664.016 912.016 677 896 677V683C915.33 683 931 667.33 931 648H925ZM896 619C912.016 619 925 631.984 925 648H931C931 628.67 915.33 613 896 613V619ZM867 648C867 631.984 879.984 619 896 619V613C876.67 613 861 628.67 861 648H867ZM896 677C879.984 677 867 664.016 867 648H861C861 667.33 876.67 683 896 683V677ZM984 683C1003.33 683 1019 667.33 1019 648H1013C1013 664.016 1000.02 677 984 677V683ZM949 648C949 667.33 964.67 683 984 683V677C967.984 677 955 664.016 955 648H949ZM984 613C964.67 613 949 628.67 949 648H955C955 631.984 967.984 619 984 619V613ZM1019 648C1019 628.67 1003.33 613 984 613V619C1000.02 619 1013 631.984 1013 648H1019Z" fill="black" mask="url(#path-14-inside-1_5_2247)"/>
</g>
<g filter="url(#filter5_di_5_2247)">
<circle cx="896" cy="648" r="32" fill="#FD6687"/>
<circle cx="896" cy="648" r="33.5" stroke="black" stroke-width="3"/>
</g>
<g filter="url(#filter6_di_5_2247)">
<circle cx="632" cy="648" r="32" fill="#FD6687"/>
<circle cx="632" cy="648" r="33.5" stroke="black" stroke-width="3"/>
</g>
<g filter="url(#filter7_di_5_2247)">
<circle cx="808" cy="560" r="32" fill="#FD6687"/>
<circle cx="808" cy="560" r="33.5" stroke="black" stroke-width="3"/>
</g>
<g filter="url(#filter8_di_5_2247)">
<circle cx="720" cy="560" r="32" fill="#FD6687"/>
<circle cx="720" cy="560" r="33.5" stroke="black" stroke-width="3"/>
</g>
<g filter="url(#filter9_di_5_2247)">
<circle cx="896" cy="560" r="32" fill="#FFCE67"/>
<circle cx="896" cy="560" r="33.5" stroke="black" stroke-width="3"/>
</g>
<g filter="url(#filter10_di_5_2247)">
<circle cx="808" cy="648" r="32" fill="#FFCE67"/>
<circle cx="808" cy="648" r="33.5" stroke="black" stroke-width="3"/>
</g>
<g filter="url(#filter11_di_5_2247)">
<circle cx="720" cy="648" r="32" fill="#FFCE67"/>
<circle cx="720" cy="648" r="33.5" stroke="black" stroke-width="3"/>
</g>
<g filter="url(#filter12_di_5_2247)">
<circle cx="896" cy="472" r="32" fill="#FFCE67"/>
<circle cx="896" cy="472" r="33.5" stroke="black" stroke-width="3"/>
</g>
<g filter="url(#filter13_di_5_2247)">
<circle cx="896" cy="384" r="32" fill="#FFCE67"/>
<circle cx="896" cy="384" r="33.5" stroke="black" stroke-width="3"/>
</g>
<mask id="path-34-inside-2_5_2247" fill="white">
<path fill-rule="evenodd" clip-rule="evenodd" d="M444 156C421.909 156 404 173.909 404 196V700C404 722.091 421.909 740 444 740H996C1018.09 740 1036 722.091 1036 700V196C1036 173.909 1018.09 156 996 156H444ZM456 240C473.673 240 488 225.673 488 208C488 190.327 473.673 176 456 176C438.327 176 424 190.327 424 208C424 225.673 438.327 240 456 240ZM544 240C561.673 240 576 225.673 576 208C576 190.327 561.673 176 544 176C526.327 176 512 190.327 512 208C512 225.673 526.327 240 544 240ZM664 208C664 225.673 649.673 240 632 240C614.327 240 600 225.673 600 208C600 190.327 614.327 176 632 176C649.673 176 664 190.327 664 208ZM720 240C737.673 240 752 225.673 752 208C752 190.327 737.673 176 720 176C702.327 176 688 190.327 688 208C688 225.673 702.327 240 720 240ZM840 208C840 225.673 825.673 240 808 240C790.327 240 776 225.673 776 208C776 190.327 790.327 176 808 176C825.673 176 840 190.327 840 208ZM896 240C913.673 240 928 225.673 928 208C928 190.327 913.673 176 896 176C878.327 176 864 190.327 864 208C864 225.673 878.327 240 896 240ZM1016 208C1016 225.673 1001.67 240 984 240C966.327 240 952 225.673 952 208C952 190.327 966.327 176 984 176C1001.67 176 1016 190.327 1016 208ZM456 328C473.673 328 488 313.673 488 296C488 278.327 473.673 264 456 264C438.327 264 424 278.327 424 296C424 313.673 438.327 328 456 328ZM576 296C576 313.673 561.673 328 544 328C526.327 328 512 313.673 512 296C512 278.327 526.327 264 544 264C561.673 264 576 278.327 576 296ZM632 328C649.673 328 664 313.673 664 296C664 278.327 649.673 264 632 264C614.327 264 600 278.327 600 296C600 313.673 614.327 328 632 328ZM752 296C752 313.673 737.673 328 720 328C702.327 328 688 313.673 688 296C688 278.327 702.327 264 720 264C737.673 264 752 278.327 752 296ZM808 328C825.673 328 840 313.673 840 296C840 278.327 825.673 264 808 264C790.327 264 776 278.327 776 296C776 313.673 790.327 328 808 328ZM928 296C928 313.673 913.673 328 896 328C878.327 328 864 313.673 864 296C864 278.327 878.327 264 896 264C913.673 264 928 278.327 928 296ZM984 328C1001.67 328 1016 313.673 1016 296C1016 278.327 1001.67 264 984 264C966.327 264 952 278.327 952 296C952 313.673 966.327 328 984 328ZM488 384C488 401.673 473.673 416 456 416C438.327 416 424 401.673 424 384C424 366.327 438.327 352 456 352C473.673 352 488 366.327 488 384ZM544 416C561.673 416 576 401.673 576 384C576 366.327 561.673 352 544 352C526.327 352 512 366.327 512 384C512 401.673 526.327 416 544 416ZM664 384C664 401.673 649.673 416 632 416C614.327 416 600 401.673 600 384C600 366.327 614.327 352 632 352C649.673 352 664 366.327 664 384ZM720 416C737.673 416 752 401.673 752 384C752 366.327 737.673 352 720 352C702.327 352 688 366.327 688 384C688 401.673 702.327 416 720 416ZM840 384C840 401.673 825.673 416 808 416C790.327 416 776 401.673 776 384C776 366.327 790.327 352 808 352C825.673 352 840 366.327 840 384ZM896 416C913.673 416 928 401.673 928 384C928 366.327 913.673 352 896 352C878.327 352 864 366.327 864 384C864 401.673 878.327 416 896 416ZM1016 384C1016 401.673 1001.67 416 984 416C966.327 416 952 401.673 952 384C952 366.327 966.327 352 984 352C1001.67 352 1016 366.327 1016 384ZM456 504C473.673 504 488 489.673 488 472C488 454.327 473.673 440 456 440C438.327 440 424 454.327 424 472C424 489.673 438.327 504 456 504ZM576 472C576 489.673 561.673 504 544 504C526.327 504 512 489.673 512 472C512 454.327 526.327 440 544 440C561.673 440 576 454.327 576 472ZM632 504C649.673 504 664 489.673 664 472C664 454.327 649.673 440 632 440C614.327 440 600 454.327 600 472C600 489.673 614.327 504 632 504ZM752 472C752 489.673 737.673 504 720 504C702.327 504 688 489.673 688 472C688 454.327 702.327 440 720 440C737.673 440 752 454.327 752 472ZM808 504C825.673 504 840 489.673 840 472C840 454.327 825.673 440 808 440C790.327 440 776 454.327 776 472C776 489.673 790.327 504 808 504ZM928 472C928 489.673 913.673 504 896 504C878.327 504 864 489.673 864 472C864 454.327 878.327 440 896 440C913.673 440 928 454.327 928 472ZM984 504C1001.67 504 1016 489.673 1016 472C1016 454.327 1001.67 440 984 440C966.327 440 952 454.327 952 472C952 489.673 966.327 504 984 504ZM488 560C488 577.673 473.673 592 456 592C438.327 592 424 577.673 424 560C424 542.327 438.327 528 456 528C473.673 528 488 542.327 488 560ZM544 592C561.673 592 576 577.673 576 560C576 542.327 561.673 528 544 528C526.327 528 512 542.327 512 560C512 577.673 526.327 592 544 592ZM664 560C664 577.673 649.673 592 632 592C614.327 592 600 577.673 600 560C600 542.327 614.327 528 632 528C649.673 528 664 542.327 664 560ZM720 592C737.673 592 752 577.673 752 560C752 542.327 737.673 528 720 528C702.327 528 688 542.327 688 560C688 577.673 702.327 592 720 592ZM840 560C840 577.673 825.673 592 808 592C790.327 592 776 577.673 776 560C776 542.327 790.327 528 808 528C825.673 528 840 542.327 840 560ZM896 592C913.673 592 928 577.673 928 560C928 542.327 913.673 528 896 528C878.327 528 864 542.327 864 560C864 577.673 878.327 592 896 592ZM1016 560C1016 577.673 1001.67 592 984 592C966.327 592 952 577.673 952 560C952 542.327 966.327 528 984 528C1001.67 528 1016 542.327 1016 560ZM456 680C473.673 680 488 665.673 488 648C488 630.327 473.673 616 456 616C438.327 616 424 630.327 424 648C424 665.673 438.327 680 456 680ZM576 648C576 665.673 561.673 680 544 680C526.327 680 512 665.673 512 648C512 630.327 526.327 616 544 616C561.673 616 576 630.327 576 648ZM752 648C752 665.673 737.673 680 720 680C702.327 680 688 665.673 688 648C688 630.327 702.327 616 720 616C737.673 616 752 630.327 752 648ZM632 680C649.673 680 664 665.673 664 648C664 630.327 649.673 616 632 616C614.327 616 600 630.327 600 648C600 665.673 614.327 680 632 680ZM840 648C840 665.673 825.673 680 808 680C790.327 680 776 665.673 776 648C776 630.327 790.327 616 808 616C825.673 616 840 630.327 840 648ZM896 680C913.673 680 928 665.673 928 648C928 630.327 913.673 616 896 616C878.327 616 864 630.327 864 648C864 665.673 878.327 680 896 680ZM1016 648C1016 665.673 1001.67 680 984 680C966.327 680 952 665.673 952 648C952 630.327 966.327 616 984 616C1001.67 616 1016 630.327 1016 648Z"/>
</mask>
<path fill-rule="evenodd" clip-rule="evenodd" d="M444 156C421.909 156 404 173.909 404 196V700C404 722.091 421.909 740 444 740H996C1018.09 740 1036 722.091 1036 700V196C1036 173.909 1018.09 156 996 156H444ZM456 240C473.673 240 488 225.673 488 208C488 190.327 473.673 176 456 176C438.327 176 424 190.327 424 208C424 225.673 438.327 240 456 240ZM544 240C561.673 240 576 225.673 576 208C576 190.327 561.673 176 544 176C526.327 176 512 190.327 512 208C512 225.673 526.327 240 544 240ZM664 208C664 225.673 649.673 240 632 240C614.327 240 600 225.673 600 208C600 190.327 614.327 176 632 176C649.673 176 664 190.327 664 208ZM720 240C737.673 240 752 225.673 752 208C752 190.327 737.673 176 720 176C702.327 176 688 190.327 688 208C688 225.673 702.327 240 720 240ZM840 208C840 225.673 825.673 240 808 240C790.327 240 776 225.673 776 208C776 190.327 790.327 176 808 176C825.673 176 840 190.327 840 208ZM896 240C913.673 240 928 225.673 928 208C928 190.327 913.673 176 896 176C878.327 176 864 190.327 864 208C864 225.673 878.327 240 896 240ZM1016 208C1016 225.673 1001.67 240 984 240C966.327 240 952 225.673 952 208C952 190.327 966.327 176 984 176C1001.67 176 1016 190.327 1016 208ZM456 328C473.673 328 488 313.673 488 296C488 278.327 473.673 264 456 264C438.327 264 424 278.327 424 296C424 313.673 438.327 328 456 328ZM576 296C576 313.673 561.673 328 544 328C526.327 328 512 313.673 512 296C512 278.327 526.327 264 544 264C561.673 264 576 278.327 576 296ZM632 328C649.673 328 664 313.673 664 296C664 278.327 649.673 264 632 264C614.327 264 600 278.327 600 296C600 313.673 614.327 328 632 328ZM752 296C752 313.673 737.673 328 720 328C702.327 328 688 313.673 688 296C688 278.327 702.327 264 720 264C737.673 264 752 278.327 752 296ZM808 328C825.673 328 840 313.673 840 296C840 278.327 825.673 264 808 264C790.327 264 776 278.327 776 296C776 313.673 790.327 328 808 328ZM928 296C928 313.673 913.673 328 896 328C878.327 328 864 313.673 864 296C864 278.327 878.327 264 896 264C913.673 264 928 278.327 928 296ZM984 328C1001.67 328 1016 313.673 1016 296C1016 278.327 1001.67 264 984 264C966.327 264 952 278.327 952 296C952 313.673 966.327 328 984 328ZM488 384C488 401.673 473.673 416 456 416C438.327 416 424 401.673 424 384C424 366.327 438.327 352 456 352C473.673 352 488 366.327 488 384ZM544 416C561.673 416 576 401.673 576 384C576 366.327 561.673 352 544 352C526.327 352 512 366.327 512 384C512 401.673 526.327 416 544 416ZM664 384C664 401.673 649.673 416 632 416C614.327 416 600 401.673 600 384C600 366.327 614.327 352 632 352C649.673 352 664 366.327 664 384ZM720 416C737.673 416 752 401.673 752 384C752 366.327 737.673 352 720 352C702.327 352 688 366.327 688 384C688 401.673 702.327 416 720 416ZM840 384C840 401.673 825.673 416 808 416C790.327 416 776 401.673 776 384C776 366.327 790.327 352 808 352C825.673 352 840 366.327 840 384ZM896 416C913.673 416 928 401.673 928 384C928 366.327 913.673 352 896 352C878.327 352 864 366.327 864 384C864 401.673 878.327 416 896 416ZM1016 384C1016 401.673 1001.67 416 984 416C966.327 416 952 401.673 952 384C952 366.327 966.327 352 984 352C1001.67 352 1016 366.327 1016 384ZM456 504C473.673 504 488 489.673 488 472C488 454.327 473.673 440 456 440C438.327 440 424 454.327 424 472C424 489.673 438.327 504 456 504ZM576 472C576 489.673 561.673 504 544 504C526.327 504 512 489.673 512 472C512 454.327 526.327 440 544 440C561.673 440 576 454.327 576 472ZM632 504C649.673 504 664 489.673 664 472C664 454.327 649.673 440 632 440C614.327 440 600 454.327 600 472C600 489.673 614.327 504 632 504ZM752 472C752 489.673 737.673 504 720 504C702.327 504 688 489.673 688 472C688 454.327 702.327 440 720 440C737.673 440 752 454.327 752 472ZM808 504C825.673 504 840 489.673 840 472C840 454.327 825.673 440 808 440C790.327 440 776 454.327 776 472C776 489.673 790.327 504 808 504ZM928 472C928 489.673 913.673 504 896 504C878.327 504 864 489.673 864 472C864 454.327 878.327 440 896 440C913.673 440 928 454.327 928 472ZM984 504C1001.67 504 1016 489.673 1016 472C1016 454.327 1001.67 440 984 440C966.327 440 952 454.327 952 472C952 489.673 966.327 504 984 504ZM488 560C488 577.673 473.673 592 456 592C438.327 592 424 577.673 424 560C424 542.327 438.327 528 456 528C473.673 528 488 542.327 488 560ZM544 592C561.673 592 576 577.673 576 560C576 542.327 561.673 528 544 528C526.327 528 512 542.327 512 560C512 577.673 526.327 592 544 592ZM664 560C664 577.673 649.673 592 632 592C614.327 592 600 577.673 600 560C600 542.327 614.327 528 632 528C649.673 528 664 542.327 664 560ZM720 592C737.673 592 752 577.673 752 560C752 542.327 737.673 528 720 528C702.327 528 688 542.327 688 560C688 577.673 702.327 592 720 592ZM840 560C840 577.673 825.673 592 808 592C790.327 592 776 577.673 776 560C776 542.327 790.327 528 808 528C825.673 528 840 542.327 840 560ZM896 592C913.673 592 928 577.673 928 560C928 542.327 913.673 528 896 528C878.327 528 864 542.327 864 560C864 577.673 878.327 592 896 592ZM1016 560C1016 577.673 1001.67 592 984 592C966.327 592 952 577.673 952 560C952 542.327 966.327 528 984 528C1001.67 528 1016 542.327 1016 560ZM456 680C473.673 680 488 665.673 488 648C488 630.327 473.673 616 456 616C438.327 616 424 630.327 424 648C424 665.673 438.327 680 456 680ZM576 648C576 665.673 561.673 680 544 680C526.327 680 512 665.673 512 648C512 630.327 526.327 616 544 616C561.673 616 576 630.327 576 648ZM752 648C752 665.673 737.673 680 720 680C702.327 680 688 665.673 688 648C688 630.327 702.327 616 720 616C737.673 616 752 630.327 752 648ZM632 680C649.673 680 664 665.673 664 648C664 630.327 649.673 616 632 616C614.327 616 600 630.327 600 648C600 665.673 614.327 680 632 680ZM840 648C840 665.673 825.673 680 808 680C790.327 680 776 665.673 776 648C776 630.327 790.327 616 808 616C825.673 616 840 630.327 840 648ZM896 680C913.673 680 928 665.673 928 648C928 630.327 913.673 616 896 616C878.327 616 864 630.327 864 648C864 665.673 878.327 680 896 680ZM1016 648C1016 665.673 1001.67 680 984 680C966.327 680 952 665.673 952 648C952 630.327 966.327 616 984 616C1001.67 616 1016 630.327 1016 648Z" fill="white"/>
<path d="M407 196C407 175.565 423.565 159 444 159V153C420.252 153 401 172.252 401 196H407ZM407 700V196H401V700H407ZM444 737C423.565 737 407 720.435 407 700H401C401 723.748 420.252 743 444 743V737ZM996 737H444V743H996V737ZM1033 700C1033 720.435 1016.43 737 996 737V743C1019.75 743 1039 723.748 1039 700H1033ZM1033 196V700H1039V196H1033ZM996 159C1016.43 159 1033 175.565 1033 196H1039C1039 172.252 1019.75 153 996 153V159ZM444 159H996V153H444V159ZM485 208C485 224.016 472.016 237 456 237V243C475.33 243 491 227.33 491 208H485ZM456 179C472.016 179 485 191.984 485 208H491C491 188.67 475.33 173 456 173V179ZM427 208C427 191.984 439.984 179 456 179V173C436.67 173 421 188.67 421 208H427ZM456 237C439.984 237 427 224.016 427 208H421C421 227.33 436.67 243 456 243V237ZM573 208C573 224.016 560.016 237 544 237V243C563.33 243 579 227.33 579 208H573ZM544 179C560.016 179 573 191.984 573 208H579C579 188.67 563.33 173 544 173V179ZM515 208C515 191.984 527.984 179 544 179V173C524.67 173 509 188.67 509 208H515ZM544 237C527.984 237 515 224.016 515 208H509C509 227.33 524.67 243 544 243V237ZM632 243C651.33 243 667 227.33 667 208H661C661 224.016 648.016 237 632 237V243ZM597 208C597 227.33 612.67 243 632 243V237C615.984 237 603 224.016 603 208H597ZM632 173C612.67 173 597 188.67 597 208H603C603 191.984 615.984 179 632 179V173ZM667 208C667 188.67 651.33 173 632 173V179C648.016 179 661 191.984 661 208H667ZM749 208C749 224.016 736.016 237 720 237V243C739.33 243 755 227.33 755 208H749ZM720 179C736.016 179 749 191.984 749 208H755C755 188.67 739.33 173 720 173V179ZM691 208C691 191.984 703.984 179 720 179V173C700.67 173 685 188.67 685 208H691ZM720 237C703.984 237 691 224.016 691 208H685C685 227.33 700.67 243 720 243V237ZM808 243C827.33 243 843 227.33 843 208H837C837 224.016 824.016 237 808 237V243ZM773 208C773 227.33 788.67 243 808 243V237C791.984 237 779 224.016 779 208H773ZM808 173C788.67 173 773 188.67 773 208H779C779 191.984 791.984 179 808 179V173ZM843 208C843 188.67 827.33 173 808 173V179C824.016 179 837 191.984 837 208H843ZM925 208C925 224.016 912.016 237 896 237V243C915.33 243 931 227.33 931 208H925ZM896 179C912.016 179 925 191.984 925 208H931C931 188.67 915.33 173 896 173V179ZM867 208C867 191.984 879.984 179 896 179V173C876.67 173 861 188.67 861 208H867ZM896 237C879.984 237 867 224.016 867 208H861C861 227.33 876.67 243 896 243V237ZM984 243C1003.33 243 1019 227.33 1019 208H1013C1013 224.016 1000.02 237 984 237V243ZM949 208C949 227.33 964.67 243 984 243V237C967.984 237 955 224.016 955 208H949ZM984 173C964.67 173 949 188.67 949 208H955C955 191.984 967.984 179 984 179V173ZM1019 208C1019 188.67 1003.33 173 984 173V179C1000.02 179 1013 191.984 1013 208H1019ZM485 296C485 312.016 472.016 325 456 325V331C475.33 331 491 315.33 491 296H485ZM456 267C472.016 267 485 279.984 485 296H491C491 276.67 475.33 261 456 261V267ZM427 296C427 279.984 439.984 267 456 267V261C436.67 261 421 276.67 421 296H427ZM456 325C439.984 325 427 312.016 427 296H421C421 315.33 436.67 331 456 331V325ZM544 331C563.33 331 579 315.33 579 296H573C573 312.016 560.016 325 544 325V331ZM509 296C509 315.33 524.67 331 544 331V325C527.984 325 515 312.016 515 296H509ZM544 261C524.67 261 509 276.67 509 296H515C515 279.984 527.984 267 544 267V261ZM579 296C579 276.67 563.33 261 544 261V267C560.016 267 573 279.984 573 296H579ZM661 296C661 312.016 648.016 325 632 325V331C651.33 331 667 315.33 667 296H661ZM632 267C648.016 267 661 279.984 661 296H667C667 276.67 651.33 261 632 261V267ZM603 296C603 279.984 615.984 267 632 267V261C612.67 261 597 276.67 597 296H603ZM632 325C615.984 325 603 312.016 603 296H597C597 315.33 612.67 331 632 331V325ZM720 331C739.33 331 755 315.33 755 296H749C749 312.016 736.016 325 720 325V331ZM685 296C685 315.33 700.67 331 720 331V325C703.984 325 691 312.016 691 296H685ZM720 261C700.67 261 685 276.67 685 296H691C691 279.984 703.984 267 720 267V261ZM755 296C755 276.67 739.33 261 720 261V267C736.016 267 749 279.984 749 296H755ZM837 296C837 312.016 824.016 325 808 325V331C827.33 331 843 315.33 843 296H837ZM808 267C824.016 267 837 279.984 837 296H843C843 276.67 827.33 261 808 261V267ZM779 296C779 279.984 791.984 267 808 267V261C788.67 261 773 276.67 773 296H779ZM808 325C791.984 325 779 312.016 779 296H773C773 315.33 788.67 331 808 331V325ZM896 331C915.33 331 931 315.33 931 296H925C925 312.016 912.016 325 896 325V331ZM861 296C861 315.33 876.67 331 896 331V325C879.984 325 867 312.016 867 296H861ZM896 261C876.67 261 861 276.67 861 296H867C867 279.984 879.984 267 896 267V261ZM931 296C931 276.67 915.33 261 896 261V267C912.016 267 925 279.984 925 296H931ZM1013 296C1013 312.016 1000.02 325 984 325V331C1003.33 331 1019 315.33 1019 296H1013ZM984 267C1000.02 267 1013 279.984 1013 296H1019C1019 276.67 1003.33 261 984 261V267ZM955 296C955 279.984 967.984 267 984 267V261C964.67 261 949 276.67 949 296H955ZM984 325C967.984 325 955 312.016 955 296H949C949 315.33 964.67 331 984 331V325ZM456 419C475.33 419 491 403.33 491 384H485C485 400.016 472.016 413 456 413V419ZM421 384C421 403.33 436.67 419 456 419V413C439.984 413 427 400.016 427 384H421ZM456 349C436.67 349 421 364.67 421 384H427C427 367.984 439.984 355 456 355V349ZM491 384C491 364.67 475.33 349 456 349V355C472.016 355 485 367.984 485 384H491ZM573 384C573 400.016 560.016 413 544 413V419C563.33 419 579 403.33 579 384H573ZM544 355C560.016 355 573 367.984 573 384H579C579 364.67 563.33 349 544 349V355ZM515 384C515 367.984 527.984 355 544 355V349C524.67 349 509 364.67 509 384H515ZM544 413C527.984 413 515 400.016 515 384H509C509 403.33 524.67 419 544 419V413ZM632 419C651.33 419 667 403.33 667 384H661C661 400.016 648.016 413 632 413V419ZM597 384C597 403.33 612.67 419 632 419V413C615.984 413 603 400.016 603 384H597ZM632 349C612.67 349 597 364.67 597 384H603C603 367.984 615.984 355 632 355V349ZM667 384C667 364.67 651.33 349 632 349V355C648.016 355 661 367.984 661 384H667ZM749 384C749 400.016 736.016 413 720 413V419C739.33 419 755 403.33 755 384H749ZM720 355C736.016 355 749 367.984 749 384H755C755 364.67 739.33 349 720 349V355ZM691 384C691 367.984 703.984 355 720 355V349C700.67 349 685 364.67 685 384H691ZM720 413C703.984 413 691 400.016 691 384H685C685 403.33 700.67 419 720 419V413ZM808 419C827.33 419 843 403.33 843 384H837C837 400.016 824.016 413 808 413V419ZM773 384C773 403.33 788.67 419 808 419V413C791.984 413 779 400.016 779 384H773ZM808 349C788.67 349 773 364.67 773 384H779C779 367.984 791.984 355 808 355V349ZM843 384C843 364.67 827.33 349 808 349V355C824.016 355 837 367.984 837 384H843ZM925 384C925 400.016 912.016 413 896 413V419C915.33 419 931 403.33 931 384H925ZM896 355C912.016 355 925 367.984 925 384H931C931 364.67 915.33 349 896 349V355ZM867 384C867 367.984 879.984 355 896 355V349C876.67 349 861 364.67 861 384H867ZM896 413C879.984 413 867 400.016 867 384H861C861 403.33 876.67 419 896 419V413ZM984 419C1003.33 419 1019 403.33 1019 384H1013C1013 400.016 1000.02 413 984 413V419ZM949 384C949 403.33 964.67 419 984 419V413C967.984 413 955 400.016 955 384H949ZM984 349C964.67 349 949 364.67 949 384H955C955 367.984 967.984 355 984 355V349ZM1019 384C1019 364.67 1003.33 349 984 349V355C1000.02 355 1013 367.984 1013 384H1019ZM485 472C485 488.016 472.016 501 456 501V507C475.33 507 491 491.33 491 472H485ZM456 443C472.016 443 485 455.984 485 472H491C491 452.67 475.33 437 456 437V443ZM427 472C427 455.984 439.984 443 456 443V437C436.67 437 421 452.67 421 472H427ZM456 501C439.984 501 427 488.016 427 472H421C421 491.33 436.67 507 456 507V501ZM544 507C563.33 507 579 491.33 579 472H573C573 488.016 560.016 501 544 501V507ZM509 472C509 491.33 524.67 507 544 507V501C527.984 501 515 488.016 515 472H509ZM544 437C524.67 437 509 452.67 509 472H515C515 455.984 527.984 443 544 443V437ZM579 472C579 452.67 563.33 437 544 437V443C560.016 443 573 455.984 573 472H579ZM661 472C661 488.016 648.016 501 632 501V507C651.33 507 667 491.33 667 472H661ZM632 443C648.016 443 661 455.984 661 472H667C667 452.67 651.33 437 632 437V443ZM603 472C603 455.984 615.984 443 632 443V437C612.67 437 597 452.67 597 472H603ZM632 501C615.984 501 603 488.016 603 472H597C597 491.33 612.67 507 632 507V501ZM720 507C739.33 507 755 491.33 755 472H749C749 488.016 736.016 501 720 501V507ZM685 472C685 491.33 700.67 507 720 507V501C703.984 501 691 488.016 691 472H685ZM720 437C700.67 437 685 452.67 685 472H691C691 455.984 703.984 443 720 443V437ZM755 472C755 452.67 739.33 437 720 437V443C736.016 443 749 455.984 749 472H755ZM837 472C837 488.016 824.016 501 808 501V507C827.33 507 843 491.33 843 472H837ZM808 443C824.016 443 837 455.984 837 472H843C843 452.67 827.33 437 808 437V443ZM779 472C779 455.984 791.984 443 808 443V437C788.67 437 773 452.67 773 472H779ZM808 501C791.984 501 779 488.016 779 472H773C773 491.33 788.67 507 808 507V501ZM896 507C915.33 507 931 491.33 931 472H925C925 488.016 912.016 501 896 501V507ZM861 472C861 491.33 876.67 507 896 507V501C879.984 501 867 488.016 867 472H861ZM896 437C876.67 437 861 452.67 861 472H867C867 455.984 879.984 443 896 443V437ZM931 472C931 452.67 915.33 437 896 437V443C912.016 443 925 455.984 925 472H931ZM1013 472C1013 488.016 1000.02 501 984 501V507C1003.33 507 1019 491.33 1019 472H1013ZM984 443C1000.02 443 1013 455.984 1013 472H1019C1019 452.67 1003.33 437 984 437V443ZM955 472C955 455.984 967.984 443 984 443V437C964.67 437 949 452.67 949 472H955ZM984 501C967.984 501 955 488.016 955 472H949C949 491.33 964.67 507 984 507V501ZM456 595C475.33 595 491 579.33 491 560H485C485 576.016 472.016 589 456 589V595ZM421 560C421 579.33 436.67 595 456 595V589C439.984 589 427 576.016 427 560H421ZM456 525C436.67 525 421 540.67 421 560H427C427 543.984 439.984 531 456 531V525ZM491 560C491 540.67 475.33 525 456 525V531C472.016 531 485 543.984 485 560H491ZM573 560C573 576.016 560.016 589 544 589V595C563.33 595 579 579.33 579 560H573ZM544 531C560.016 531 573 543.984 573 560H579C579 540.67 563.33 525 544 525V531ZM515 560C515 543.984 527.984 531 544 531V525C524.67 525 509 540.67 509 560H515ZM544 589C527.984 589 515 576.016 515 560H509C509 579.33 524.67 595 544 595V589ZM632 595C651.33 595 667 579.33 667 560H661C661 576.016 648.016 589 632 589V595ZM597 560C597 579.33 612.67 595 632 595V589C615.984 589 603 576.016 603 560H597ZM632 525C612.67 525 597 540.67 597 560H603C603 543.984 615.984 531 632 531V525ZM667 560C667 540.67 651.33 525 632 525V531C648.016 531 661 543.984 661 560H667ZM749 560C749 576.016 736.016 589 720 589V595C739.33 595 755 579.33 755 560H749ZM720 531C736.016 531 749 543.984 749 560H755C755 540.67 739.33 525 720 525V531ZM691 560C691 543.984 703.984 531 720 531V525C700.67 525 685 540.67 685 560H691ZM720 589C703.984 589 691 576.016 691 560H685C685 579.33 700.67 595 720 595V589ZM808 595C827.33 595 843 579.33 843 560H837C837 576.016 824.016 589 808 589V595ZM773 560C773 579.33 788.67 595 808 595V589C791.984 589 779 576.016 779 560H773ZM808 525C788.67 525 773 540.67 773 560H779C779 543.984 791.984 531 808 531V525ZM843 560C843 540.67 827.33 525 808 525V531C824.016 531 837 543.984 837 560H843ZM925 560C925 576.016 912.016 589 896 589V595C915.33 595 931 579.33 931 560H925ZM896 531C912.016 531 925 543.984 925 560H931C931 540.67 915.33 525 896 525V531ZM867 560C867 543.984 879.984 531 896 531V525C876.67 525 861 540.67 861 560H867ZM896 589C879.984 589 867 576.016 867 560H861C861 579.33 876.67 595 896 595V589ZM984 595C1003.33 595 1019 579.33 1019 560H1013C1013 576.016 1000.02 589 984 589V595ZM949 560C949 579.33 964.67 595 984 595V589C967.984 589 955 576.016 955 560H949ZM984 525C964.67 525 949 540.67 949 560H955C955 543.984 967.984 531 984 531V525ZM1019 560C1019 540.67 1003.33 525 984 525V531C1000.02 531 1013 543.984 1013 560H1019ZM485 648C485 664.016 472.016 677 456 677V683C475.33 683 491 667.33 491 648H485ZM456 619C472.016 619 485 631.984 485 648H491C491 628.67 475.33 613 456 613V619ZM427 648C427 631.984 439.984 619 456 619V613C436.67 613 421 628.67 421 648H427ZM456 677C439.984 677 427 664.016 427 648H421C421 667.33 436.67 683 456 683V677ZM544 683C563.33 683 579 667.33 579 648H573C573 664.016 560.016 677 544 677V683ZM509 648C509 667.33 524.67 683 544 683V677C527.984 677 515 664.016 515 648H509ZM544 613C524.67 613 509 628.67 509 648H515C515 631.984 527.984 619 544 619V613ZM579 648C579 628.67 563.33 613 544 613V619C560.016 619 573 631.984 573 648H579ZM720 683C739.33 683 755 667.33 755 648H749C749 664.016 736.016 677 720 677V683ZM685 648C685 667.33 700.67 683 720 683V677C703.984 677 691 664.016 691 648H685ZM720 613C700.67 613 685 628.67 685 648H691C691 631.984 703.984 619 720 619V613ZM755 648C755 628.67 739.33 613 720 613V619C736.016 619 749 631.984 749 648H755ZM661 648C661 664.016 648.016 677 632 677V683C651.33 683 667 667.33 667 648H661ZM632 619C648.016 619 661 631.984 661 648H667C667 628.67 651.33 613 632 613V619ZM603 648C603 631.984 615.984 619 632 619V613C612.67 613 597 628.67 597 648H603ZM632 677C615.984 677 603 664.016 603 648H597C597 667.33 612.67 683 632 683V677ZM808 683C827.33 683 843 667.33 843 648H837C837 664.016 824.016 677 808 677V683ZM773 648C773 667.33 788.67 683 808 683V677C791.984 677 779 664.016 779 648H773ZM808 613C788.67 613 773 628.67 773 648H779C779 631.984 791.984 619 808 619V613ZM843 648C843 628.67 827.33 613 808 613V619C824.016 619 837 631.984 837 648H843ZM925 648C925 664.016 912.016 677 896 677V683C915.33 683 931 667.33 931 648H925ZM896 619C912.016 619 925 631.984 925 648H931C931 628.67 915.33 613 896 613V619ZM867 648C867 631.984 879.984 619 896 619V613C876.67 613 861 628.67 861 648H867ZM896 677C879.984 677 867 664.016 867 648H861C861 667.33 876.67 683 896 683V677ZM984 683C1003.33 683 1019 667.33 1019 648H1013C1013 664.016 1000.02 677 984 677V683ZM949 648C949 667.33 964.67 683 984 683V677C967.984 677 955 664.016 955 648H949ZM984 613C964.67 613 949 628.67 949 648H955C955 631.984 967.984 619 984 619V613ZM1019 648C1019 628.67 1003.33 613 984 613V619C1000.02 619 1013 631.984 1013 648H1019Z" fill="black" mask="url(#path-34-inside-2_5_2247)"/>
<g filter="url(#filter14_d_5_2247)">
<rect x="203" y="351" width="141" height="160" rx="20" fill="white"/>
<rect x="201.5" y="349.5" width="144" height="163" rx="21.5" stroke="black" stroke-width="3"/>
</g>
<circle cx="27" cy="27" r="27" transform="matrix(-1 0 0 1 301 324)" fill="black"/>
<circle cx="27" cy="27" r="27" transform="matrix(-1 0 0 1 301 329)" fill="black"/>
<circle cx="24" cy="24" r="24" transform="matrix(-1 0 0 1 298 327)" fill="#FD6687"/>
<path d="M259.75 349.25C259.75 356.706 265.794 362.75 273.25 362.75C280.706 362.75 286.75 356.706 286.75 349.25H283.75C283.75 355.049 279.049 359.75 273.25 359.75C267.451 359.75 262.75 355.049 262.75 349.25H259.75Z" fill="black"/>
<path d="M277 341V346.984H280V341H277Z" fill="black"/>
<path d="M267 341V346.984H270V341H267Z" fill="black"/>
<path d="M259.986 417V412.18L255.226 403H258.166L261.126 409H261.486L264.446 403H267.386L262.626 412.18V417H259.986ZM273.74 417.28C271.98 417.28 270.58 416.8 269.54 415.84C268.5 414.867 267.98 413.48 267.98 411.68V408.32C267.98 406.52 268.5 405.14 269.54 404.18C270.58 403.207 271.98 402.72 273.74 402.72C275.5 402.72 276.9 403.207 277.94 404.18C278.98 405.14 279.5 406.52 279.5 408.32V411.68C279.5 413.48 278.98 414.867 277.94 415.84C276.9 416.8 275.5 417.28 273.74 417.28ZM273.74 414.92C274.727 414.92 275.494 414.633 276.04 414.06C276.587 413.487 276.86 412.72 276.86 411.76V408.24C276.86 407.28 276.587 406.513 276.04 405.94C275.494 405.367 274.727 405.08 273.74 405.08C272.767 405.08 272 405.367 271.44 405.94C270.894 406.513 270.62 407.28 270.62 408.24V411.76C270.62 412.72 270.894 413.487 271.44 414.06C272 414.633 272.767 414.92 273.74 414.92ZM287.216 417.28C286.069 417.28 285.083 417.073 284.256 416.66C283.443 416.233 282.816 415.633 282.376 414.86C281.949 414.073 281.736 413.147 281.736 412.08V403H284.376V412.16C284.376 413.013 284.616 413.687 285.096 414.18C285.589 414.673 286.296 414.92 287.216 414.92C288.136 414.92 288.836 414.673 289.316 414.18C289.809 413.687 290.056 413.013 290.056 412.16V403H292.696V412.08C292.696 413.147 292.476 414.073 292.036 414.86C291.609 415.633 290.983 416.233 290.156 416.66C289.343 417.073 288.363 417.28 287.216 417.28Z" fill="black"/>
<path d="M259.663 478V444.064H258.655L253.391 456.496H245.887L253.895 438.8H266.831V478H259.663ZM272.887 478V473.296C272.887 470.571 273.335 468.312 274.231 466.52C275.127 464.691 276.415 463.197 278.095 462.04C279.812 460.845 281.903 459.875 284.367 459.128L288.119 457.952C289.5 457.504 290.658 456.963 291.591 456.328C292.524 455.656 293.234 454.853 293.719 453.92C294.242 452.987 294.503 451.923 294.503 450.728V450.504C294.503 448.637 293.868 447.163 292.599 446.08C291.33 444.96 289.594 444.4 287.391 444.4C285.226 444.4 283.471 444.997 282.127 446.192C280.82 447.349 280.167 449.029 280.167 451.232V452.24H272.999V451.344C272.999 448.507 273.634 446.099 274.903 444.12C276.172 442.141 277.89 440.629 280.055 439.584C282.258 438.539 284.703 438.016 287.391 438.016C290.079 438.016 292.506 438.539 294.671 439.584C296.836 440.592 298.535 442.029 299.767 443.896C301.036 445.725 301.671 447.891 301.671 450.392V450.952C301.671 453.453 301.148 455.581 300.103 457.336C299.095 459.053 297.714 460.472 295.959 461.592C294.204 462.675 292.207 463.571 289.967 464.28L286.383 465.4C284.778 465.885 283.527 466.427 282.631 467.024C281.735 467.584 281.1 468.219 280.727 468.928C280.391 469.6 280.223 470.421 280.223 471.392V471.616H301.335V478H272.887Z" fill="black"/>
<g filter="url(#filter15_d_5_2247)">
<rect x="1096" y="351" width="141" height="160" rx="20" fill="white"/>
<rect x="1094.5" y="349.5" width="144" height="163" rx="21.5" stroke="black" stroke-width="3"/>
</g>
<circle cx="27" cy="27" r="27" transform="matrix(-1 0 0 1 1194 324)" fill="black"/>
<circle cx="27" cy="27" r="27" transform="matrix(-1 0 0 1 1194 329)" fill="black"/>
<circle cx="24" cy="24" r="24" transform="matrix(-1 0 0 1 1191 327)" fill="#FFCE67"/>
<path d="M1175.5 341V344H1169.5V341H1175.5Z" fill="black"/>
<path d="M1164.5 341V344H1158.5V341H1164.5Z" fill="black"/>
<path d="M1179 348V351H1155V348H1179Z" fill="black"/>
<g clip-path="url(#clip2_5_2247)">
<path d="M1154.95 417.28C1153.22 417.28 1151.84 416.8 1150.83 415.84C1149.82 414.867 1149.31 413.48 1149.31 411.68V408.32C1149.31 406.52 1149.82 405.14 1150.83 404.18C1151.84 403.207 1153.22 402.72 1154.95 402.72C1156.67 402.72 1158 403.193 1158.93 404.14C1159.88 405.073 1160.35 406.36 1160.35 408V408.12H1157.75V407.92C1157.75 407.093 1157.52 406.413 1157.05 405.88C1156.6 405.347 1155.9 405.08 1154.95 405.08C1154.02 405.08 1153.28 405.367 1152.75 405.94C1152.22 406.513 1151.95 407.293 1151.95 408.28V411.72C1151.95 412.693 1152.22 413.473 1152.75 414.06C1153.28 414.633 1154.02 414.92 1154.95 414.92C1155.9 414.92 1156.6 414.653 1157.05 414.12C1157.52 413.573 1157.75 412.893 1157.75 412.08V411.72H1160.35V412C1160.35 413.64 1159.88 414.933 1158.93 415.88C1158 416.813 1156.67 417.28 1154.95 417.28ZM1162.5 417V403H1168.26C1169.14 403 1169.91 403.18 1170.58 403.54C1171.26 403.887 1171.79 404.38 1172.16 405.02C1172.55 405.66 1172.74 406.42 1172.74 407.3V407.58C1172.74 408.447 1172.54 409.207 1172.14 409.86C1171.75 410.5 1171.22 411 1170.54 411.36C1169.87 411.707 1169.11 411.88 1168.26 411.88H1165.14V417H1162.5ZM1165.14 409.48H1168C1168.63 409.48 1169.13 409.307 1169.52 408.96C1169.91 408.613 1170.1 408.14 1170.1 407.54V407.34C1170.1 406.74 1169.91 406.267 1169.52 405.92C1169.13 405.573 1168.63 405.4 1168 405.4H1165.14V409.48ZM1179.97 417.28C1178.83 417.28 1177.84 417.073 1177.01 416.66C1176.2 416.233 1175.57 415.633 1175.13 414.86C1174.71 414.073 1174.49 413.147 1174.49 412.08V403H1177.13V412.16C1177.13 413.013 1177.37 413.687 1177.85 414.18C1178.35 414.673 1179.05 414.92 1179.97 414.92C1180.89 414.92 1181.59 414.673 1182.07 414.18C1182.57 413.687 1182.81 413.013 1182.81 412.16V403H1185.45V412.08C1185.45 413.147 1185.23 414.073 1184.79 414.86C1184.37 415.633 1183.74 416.233 1182.91 416.66C1182.1 417.073 1181.12 417.28 1179.97 417.28Z" fill="black"/>
<path d="M1135.69 478V473.296C1135.69 470.571 1136.14 468.312 1137.04 466.52C1137.93 464.691 1139.22 463.197 1140.9 462.04C1142.62 460.845 1144.71 459.875 1147.17 459.128L1150.92 457.952C1152.31 457.504 1153.46 456.963 1154.4 456.328C1155.33 455.656 1156.04 454.853 1156.52 453.92C1157.05 452.987 1157.31 451.923 1157.31 450.728V450.504C1157.31 448.637 1156.67 447.163 1155.4 446.08C1154.13 444.96 1152.4 444.4 1150.2 444.4C1148.03 444.4 1146.28 444.997 1144.93 446.192C1143.63 447.349 1142.97 449.029 1142.97 451.232V452.24H1135.8V451.344C1135.8 448.507 1136.44 446.099 1137.71 444.12C1138.98 442.141 1140.69 440.629 1142.86 439.584C1145.06 438.539 1147.51 438.016 1150.2 438.016C1152.88 438.016 1155.31 438.539 1157.48 439.584C1159.64 440.592 1161.34 442.029 1162.57 443.896C1163.84 445.725 1164.48 447.891 1164.48 450.392V450.952C1164.48 453.453 1163.95 455.581 1162.91 457.336C1161.9 459.053 1160.52 460.472 1158.76 461.592C1157.01 462.675 1155.01 463.571 1152.77 464.28L1149.19 465.4C1147.58 465.885 1146.33 466.427 1145.44 467.024C1144.54 467.584 1143.91 468.219 1143.53 468.928C1143.2 469.6 1143.03 470.421 1143.03 471.392V471.616H1164.14V478H1135.69ZM1183.61 478.784C1180.66 478.784 1178.05 478.261 1175.77 477.216C1173.5 476.171 1171.7 474.677 1170.4 472.736C1169.13 470.757 1168.49 468.424 1168.49 465.736V464.728H1175.66V465.512C1175.66 467.603 1176.39 469.283 1177.85 470.552C1179.3 471.784 1181.22 472.4 1183.61 472.4C1186.04 472.4 1187.91 471.821 1189.21 470.664C1190.56 469.507 1191.23 468.051 1191.23 466.296V465.736C1191.23 464.541 1190.93 463.571 1190.33 462.824C1189.74 462.077 1188.93 461.536 1187.93 461.2C1186.92 460.827 1185.78 460.64 1184.51 460.64H1176.67V452.8L1189.33 446.08V445.184H1169.5V438.8H1197.28V448.32L1185.46 454.592V455.488H1187.53C1189.29 455.488 1190.99 455.843 1192.63 456.552C1194.31 457.261 1195.69 458.363 1196.77 459.856C1197.86 461.312 1198.4 463.216 1198.4 465.568V466.24C1198.4 468.779 1197.78 471 1196.55 472.904C1195.32 474.771 1193.58 476.227 1191.34 477.272C1189.14 478.28 1186.56 478.784 1183.61 478.784Z" fill="black"/>
</g>
<g filter="url(#filter16_d_5_2247)">
<path fill-rule="evenodd" clip-rule="evenodd" d="M625 753.28C625 745.233 629.823 737.969 637.239 734.847L712.279 703.251C717.219 701.171 722.786 701.161 727.733 703.222L803.692 734.872C811.145 737.977 816 745.259 816 753.333V830C816 841.046 807.046 850 796 850H645C633.954 850 625 841.046 625 830V753.28Z" fill="#FD6687"/>
<path d="M711.697 701.868C717.007 699.633 722.992 699.621 728.31 701.837L804.27 733.487C812.281 736.826 817.5 744.654 817.5 753.333V830C817.5 841.874 807.874 851.5 796 851.5H645C633.126 851.5 623.5 841.874 623.5 830V753.279C623.5 744.629 628.685 736.821 636.657 733.464L711.697 701.868Z" stroke="black" stroke-width="3"/>
</g>
<path d="M682.053 757V753.144L678.245 745.8H680.597L682.965 750.6H683.253L685.621 745.8H687.973L684.165 753.144V757H682.053ZM693.056 757.224C691.648 757.224 690.528 756.84 689.696 756.072C688.864 755.293 688.448 754.184 688.448 752.744V750.056C688.448 748.616 688.864 747.512 689.696 746.744C690.528 745.965 691.648 745.576 693.056 745.576C694.464 745.576 695.584 745.965 696.416 746.744C697.248 747.512 697.664 748.616 697.664 750.056V752.744C697.664 754.184 697.248 755.293 696.416 756.072C695.584 756.84 694.464 757.224 693.056 757.224ZM693.056 755.336C693.846 755.336 694.459 755.107 694.896 754.648C695.334 754.189 695.552 753.576 695.552 752.808V749.992C695.552 749.224 695.334 748.611 694.896 748.152C694.459 747.693 693.846 747.464 693.056 747.464C692.278 747.464 691.664 747.693 691.216 748.152C690.779 748.611 690.56 749.224 690.56 749.992V752.808C690.56 753.576 690.779 754.189 691.216 754.648C691.664 755.107 692.278 755.336 693.056 755.336ZM703.837 757.224C702.92 757.224 702.13 757.059 701.469 756.728C700.818 756.387 700.317 755.907 699.965 755.288C699.624 754.659 699.453 753.917 699.453 753.064V745.8H701.565V753.128C701.565 753.811 701.757 754.349 702.141 754.744C702.536 755.139 703.101 755.336 703.837 755.336C704.573 755.336 705.133 755.139 705.517 754.744C705.912 754.349 706.109 753.811 706.109 753.128V745.8H708.221V753.064C708.221 753.917 708.045 754.659 707.693 755.288C707.352 755.907 706.85 756.387 706.189 756.728C705.538 757.059 704.754 757.224 703.837 757.224ZM710.267 757V745.8H715.131C715.835 745.8 716.448 745.923 716.971 746.168C717.494 746.413 717.899 746.76 718.187 747.208C718.475 747.656 718.619 748.184 718.619 748.792V748.984C718.619 749.656 718.459 750.2 718.139 750.616C717.819 751.032 717.424 751.336 716.955 751.528V751.816C717.382 751.837 717.712 751.987 717.947 752.264C718.182 752.531 718.299 752.888 718.299 753.336V757H716.187V753.64C716.187 753.384 716.118 753.176 715.979 753.016C715.851 752.856 715.632 752.776 715.323 752.776H712.379V757H710.267ZM712.379 750.856H714.907C715.408 750.856 715.798 750.723 716.075 750.456C716.363 750.179 716.507 749.816 716.507 749.368V749.208C716.507 748.76 716.368 748.403 716.091 748.136C715.814 747.859 715.419 747.72 714.907 747.72H712.379V750.856ZM726.546 757V747.72H723.282V745.8H731.922V747.72H728.658V757H726.546ZM737.681 757.224C736.763 757.224 735.974 757.059 735.313 756.728C734.662 756.387 734.161 755.907 733.809 755.288C733.467 754.659 733.297 753.917 733.297 753.064V745.8H735.409V753.128C735.409 753.811 735.601 754.349 735.985 754.744C736.379 755.139 736.945 755.336 737.681 755.336C738.417 755.336 738.977 755.139 739.361 754.744C739.755 754.349 739.953 753.811 739.953 753.128V745.8H742.065V753.064C742.065 753.917 741.889 754.659 741.537 755.288C741.195 755.907 740.694 756.387 740.033 756.728C739.382 757.059 738.598 757.224 737.681 757.224ZM744.111 757V745.8H748.975C749.679 745.8 750.292 745.923 750.815 746.168C751.337 746.413 751.743 746.76 752.031 747.208C752.319 747.656 752.463 748.184 752.463 748.792V748.984C752.463 749.656 752.303 750.2 751.983 750.616C751.663 751.032 751.268 751.336 750.799 751.528V751.816C751.225 751.837 751.556 751.987 751.791 752.264C752.025 752.531 752.143 752.888 752.143 753.336V757H750.031V753.64C750.031 753.384 749.961 753.176 749.823 753.016C749.695 752.856 749.476 752.776 749.167 752.776H746.223V757H744.111ZM746.223 750.856H748.751C749.252 750.856 749.641 750.723 749.919 750.456C750.207 750.179 750.351 749.816 750.351 749.368V749.208C750.351 748.76 750.212 748.403 749.935 748.136C749.657 747.859 749.263 747.72 748.751 747.72H746.223V750.856ZM754.22 757V745.8H758.236L760.46 755.56H760.748V745.8H762.828V757H758.812L756.588 747.24H756.3V757H754.22Z" fill="white"/>
<path d="M691.815 818V784.064H690.807L685.543 796.496H678.039L686.047 778.8H698.983V818H691.815ZM719.656 818.784C716.594 818.784 713.944 818.243 711.704 817.16C709.501 816.077 707.802 814.547 706.608 812.568C705.413 810.589 704.816 808.293 704.816 805.68V805.12H712.096V805.624C712.096 807.491 712.712 809.096 713.944 810.44C715.213 811.747 717.08 812.4 719.544 812.4C722.008 812.4 723.893 811.747 725.2 810.44C726.544 809.096 727.216 807.36 727.216 805.232V804.672C727.216 802.581 726.544 800.92 725.2 799.688C723.893 798.456 722.25 797.84 720.272 797.84C719.189 797.84 718.293 797.989 717.584 798.288C716.874 798.587 716.296 798.96 715.848 799.408C715.4 799.856 715.026 800.304 714.728 800.752H706.048V778.8H732.816V785.296H713.216V794.872H714.224C714.597 794.387 715.101 793.92 715.736 793.472C716.37 793.024 717.192 792.651 718.2 792.352C719.208 792.053 720.402 791.904 721.784 791.904C724.098 791.904 726.208 792.389 728.112 793.36C730.016 794.331 731.528 795.768 732.648 797.672C733.805 799.539 734.384 801.853 734.384 804.616V805.288C734.384 808.051 733.786 810.44 732.592 812.456C731.434 814.472 729.754 816.04 727.552 817.16C725.349 818.243 722.717 818.784 719.656 818.784ZM751.722 818.784C748.1 818.784 745.132 818 742.818 816.432C740.503 814.864 739.103 812.624 738.618 809.712L745.114 808.032C745.375 809.339 745.804 810.365 746.402 811.112C747.036 811.859 747.802 812.4 748.698 812.736C749.631 813.035 750.639 813.184 751.722 813.184C753.364 813.184 754.578 812.904 755.362 812.344C756.146 811.747 756.538 811.019 756.538 810.16C756.538 809.301 756.164 808.648 755.418 808.2C754.671 807.715 753.476 807.323 751.834 807.024L750.266 806.744C748.324 806.371 746.551 805.867 744.946 805.232C743.34 804.56 742.052 803.645 741.082 802.488C740.111 801.331 739.626 799.837 739.626 798.008C739.626 795.245 740.634 793.136 742.65 791.68C744.666 790.187 747.316 789.44 750.602 789.44C753.7 789.44 756.276 790.131 758.33 791.512C760.383 792.893 761.727 794.704 762.362 796.944L755.81 798.96C755.511 797.541 754.895 796.533 753.962 795.936C753.066 795.339 751.946 795.04 750.602 795.04C749.258 795.04 748.231 795.283 747.522 795.768C746.812 796.216 746.458 796.851 746.458 797.672C746.458 798.568 746.831 799.24 747.578 799.688C748.324 800.099 749.332 800.416 750.602 800.64L752.17 800.92C754.26 801.293 756.146 801.797 757.826 802.432C759.543 803.029 760.887 803.907 761.858 805.064C762.866 806.184 763.37 807.715 763.37 809.656C763.37 812.568 762.306 814.827 760.178 816.432C758.087 818 755.268 818.784 751.722 818.784Z" fill="white"/>
<g filter="url(#filter17_d_5_2247)">
<path fill-rule="evenodd" clip-rule="evenodd" d="M880 133.616C880 135.194 880.745 136.68 882.01 137.623L892.942 145.78C894.708 147.098 897.129 147.104 898.902 145.795L909.97 137.623C911.247 136.68 912 135.187 912 133.6V127C912 124.239 909.761 122 907 122H885C882.239 122 880 124.239 880 127V133.616Z" fill="#FD6687"/>
<path d="M892.045 146.982C894.341 148.696 897.488 148.704 899.793 147.002L910.861 138.829C912.521 137.604 913.5 135.663 913.5 133.601V127C913.5 123.41 910.59 120.5 907 120.5H885C881.41 120.5 878.5 123.41 878.5 127V133.616C878.5 135.667 879.468 137.598 881.112 138.825L892.045 146.982Z" stroke="black" stroke-width="3"/>
</g>
<defs>
<filter id="filter0_d_5_2247" x="691" y="50" width="26" height="29" filterUnits="userSpaceOnUse" color-interpolation-filters="sRGB">
<feFlood flood-opacity="0" result="BackgroundImageFix"/>
<feColorMatrix in="SourceAlpha" type="matrix" values="0 0 0 0 0 0 0 0 0 0 0 0 0 0 0 0 0 0 127 0" result="hardAlpha"/>
<feOffset dy="3"/>
<feColorMatrix type="matrix" values="0 0 0 0 0 0 0 0 0 0 0 0 0 0 0 0 0 0 1 0"/>
<feBlend mode="normal" in2="BackgroundImageFix" result="effect1_dropShadow_5_2247"/>
<feBlend mode="normal" in="SourceGraphic" in2="effect1_dropShadow_5_2247" result="shape"/>
</filter>
<filter id="filter1_d_5_2247" x="723" y="82" width="26" height="29" filterUnits="userSpaceOnUse" color-interpolation-filters="sRGB">
<feFlood flood-opacity="0" result="BackgroundImageFix"/>
<feColorMatrix in="SourceAlpha" type="matrix" values="0 0 0 0 0 0 0 0 0 0 0 0 0 0 0 0 0 0 127 0" result="hardAlpha"/>
<feOffset dy="3"/>
<feColorMatrix type="matrix" values="0 0 0 0 0 0 0 0 0 0 0 0 0 0 0 0 0 0 1 0"/>
<feBlend mode="normal" in2="BackgroundImageFix" result="effect1_dropShadow_5_2247"/>
<feBlend mode="normal" in="SourceGraphic" in2="effect1_dropShadow_5_2247" result="shape"/>
</filter>
<filter id="filter2_d_5_2247" x="723" y="50" width="26" height="29" filterUnits="userSpaceOnUse" color-interpolation-filters="sRGB">
<feFlood flood-opacity="0" result="BackgroundImageFix"/>
<feColorMatrix in="SourceAlpha" type="matrix" values="0 0 0 0 0 0 0 0 0 0 0 0 0 0 0 0 0 0 127 0" result="hardAlpha"/>
<feOffset dy="3"/>
<feColorMatrix type="matrix" values="0 0 0 0 0 0 0 0 0 0 0 0 0 0 0 0 0 0 1 0"/>
<feBlend mode="normal" in2="BackgroundImageFix" result="effect1_dropShadow_5_2247"/>
<feBlend mode="normal" in="SourceGraphic" in2="effect1_dropShadow_5_2247" result="shape"/>
</filter>
<filter id="filter3_d_5_2247" x="691" y="82" width="26" height="29" filterUnits="userSpaceOnUse" color-interpolation-filters="sRGB">
<feFlood flood-opacity="0" result="BackgroundImageFix"/>
<feColorMatrix in="SourceAlpha" type="matrix" values="0 0 0 0 0 0 0 0 0 0 0 0 0 0 0 0 0 0 127 0" result="hardAlpha"/>
<feOffset dy="3"/>
<feColorMatrix type="matrix" values="0 0 0 0 0 0 0 0 0 0 0 0 0 0 0 0 0 0 1 0"/>
<feBlend mode="normal" in2="BackgroundImageFix" result="effect1_dropShadow_5_2247"/>
<feBlend mode="normal" in="SourceGraphic" in2="effect1_dropShadow_5_2247" result="shape"/>
</filter>
<filter id="filter4_d_5_2247" x="404" y="156" width="632" height="594" filterUnits="userSpaceOnUse" color-interpolation-filters="sRGB">
<feFlood flood-opacity="0" result="BackgroundImageFix"/>
<feColorMatrix in="SourceAlpha" type="matrix" values="0 0 0 0 0 0 0 0 0 0 0 0 0 0 0 0 0 0 127 0" result="hardAlpha"/>
<feOffset dy="10"/>
<feColorMatrix type="matrix" values="0 0 0 0 0 0 0 0 0 0 0 0 0 0 0 0 0 0 1 0"/>
<feBlend mode="normal" in2="BackgroundImageFix" result="effect1_dropShadow_5_2247"/>
<feBlend mode="normal" in="SourceGraphic" in2="effect1_dropShadow_5_2247" result="shape"/>
</filter>
<filter id="filter5_di_5_2247" x="861" y="613" width="70" height="75" filterUnits="userSpaceOnUse" color-interpolation-filters="sRGB">
<feFlood flood-opacity="0" result="BackgroundImageFix"/>
<feColorMatrix in="SourceAlpha" type="matrix" values="0 0 0 0 0 0 0 0 0 0 0 0 0 0 0 0 0 0 127 0" result="hardAlpha"/>
<feOffset dy="5"/>
<feColorMatrix type="matrix" values="0 0 0 0 0 0 0 0 0 0 0 0 0 0 0 0 0 0 1 0"/>
<feBlend mode="normal" in2="BackgroundImageFix" result="effect1_dropShadow_5_2247"/>
<feBlend mode="normal" in="SourceGraphic" in2="effect1_dropShadow_5_2247" result="shape"/>
<feColorMatrix in="SourceAlpha" type="matrix" values="0 0 0 0 0 0 0 0 0 0 0 0 0 0 0 0 0 0 127 0" result="hardAlpha"/>
<feMorphology radius="3" operator="erode" in="SourceAlpha" result="effect2_innerShadow_5_2247"/>
<feOffset dy="5"/>
<feComposite in2="hardAlpha" operator="arithmetic" k2="-1" k3="1"/>
<feColorMatrix type="matrix" values="0 0 0 0 0 0 0 0 0 0 0 0 0 0 0 0 0 0 0.5 0"/>
<feBlend mode="normal" in2="shape" result="effect2_innerShadow_5_2247"/>
</filter>
<filter id="filter6_di_5_2247" x="597" y="613" width="70" height="75" filterUnits="userSpaceOnUse" color-interpolation-filters="sRGB">
<feFlood flood-opacity="0" result="BackgroundImageFix"/>
<feColorMatrix in="SourceAlpha" type="matrix" values="0 0 0 0 0 0 0 0 0 0 0 0 0 0 0 0 0 0 127 0" result="hardAlpha"/>
<feOffset dy="5"/>
<feColorMatrix type="matrix" values="0 0 0 0 0 0 0 0 0 0 0 0 0 0 0 0 0 0 1 0"/>
<feBlend mode="normal" in2="BackgroundImageFix" result="effect1_dropShadow_5_2247"/>
<feBlend mode="normal" in="SourceGraphic" in2="effect1_dropShadow_5_2247" result="shape"/>
<feColorMatrix in="SourceAlpha" type="matrix" values="0 0 0 0 0 0 0 0 0 0 0 0 0 0 0 0 0 0 127 0" result="hardAlpha"/>
<feMorphology radius="3" operator="erode" in="SourceAlpha" result="effect2_innerShadow_5_2247"/>
<feOffset dy="5"/>
<feComposite in2="hardAlpha" operator="arithmetic" k2="-1" k3="1"/>
<feColorMatrix type="matrix" values="0 0 0 0 0 0 0 0 0 0 0 0 0 0 0 0 0 0 0.5 0"/>
<feBlend mode="normal" in2="shape" result="effect2_innerShadow_5_2247"/>
</filter>
<filter id="filter7_di_5_2247" x="773" y="525" width="70" height="75" filterUnits="userSpaceOnUse" color-interpolation-filters="sRGB">
<feFlood flood-opacity="0" result="BackgroundImageFix"/>
<feColorMatrix in="SourceAlpha" type="matrix" values="0 0 0 0 0 0 0 0 0 0 0 0 0 0 0 0 0 0 127 0" result="hardAlpha"/>
<feOffset dy="5"/>
<feColorMatrix type="matrix" values="0 0 0 0 0 0 0 0 0 0 0 0 0 0 0 0 0 0 1 0"/>
<feBlend mode="normal" in2="BackgroundImageFix" result="effect1_dropShadow_5_2247"/>
<feBlend mode="normal" in="SourceGraphic" in2="effect1_dropShadow_5_2247" result="shape"/>
<feColorMatrix in="SourceAlpha" type="matrix" values="0 0 0 0 0 0 0 0 0 0 0 0 0 0 0 0 0 0 127 0" result="hardAlpha"/>
<feMorphology radius="3" operator="erode" in="SourceAlpha" result="effect2_innerShadow_5_2247"/>
<feOffset dy="5"/>
<feComposite in2="hardAlpha" operator="arithmetic" k2="-1" k3="1"/>
<feColorMatrix type="matrix" values="0 0 0 0 0 0 0 0 0 0 0 0 0 0 0 0 0 0 0.5 0"/>
<feBlend mode="normal" in2="shape" result="effect2_innerShadow_5_2247"/>
</filter>
<filter id="filter8_di_5_2247" x="685" y="525" width="70" height="75" filterUnits="userSpaceOnUse" color-interpolation-filters="sRGB">
<feFlood flood-opacity="0" result="BackgroundImageFix"/>
<feColorMatrix in="SourceAlpha" type="matrix" values="0 0 0 0 0 0 0 0 0 0 0 0 0 0 0 0 0 0 127 0" result="hardAlpha"/>
<feOffset dy="5"/>
<feColorMatrix type="matrix" values="0 0 0 0 0 0 0 0 0 0 0 0 0 0 0 0 0 0 1 0"/>
<feBlend mode="normal" in2="BackgroundImageFix" result="effect1_dropShadow_5_2247"/>
<feBlend mode="normal" in="SourceGraphic" in2="effect1_dropShadow_5_2247" result="shape"/>
<feColorMatrix in="SourceAlpha" type="matrix" values="0 0 0 0 0 0 0 0 0 0 0 0 0 0 0 0 0 0 127 0" result="hardAlpha"/>
<feMorphology radius="3" operator="erode" in="SourceAlpha" result="effect2_innerShadow_5_2247"/>
<feOffset dy="5"/>
<feComposite in2="hardAlpha" operator="arithmetic" k2="-1" k3="1"/>
<feColorMatrix type="matrix" values="0 0 0 0 0 0 0 0 0 0 0 0 0 0 0 0 0 0 0.5 0"/>
<feBlend mode="normal" in2="shape" result="effect2_innerShadow_5_2247"/>
</filter>
<filter id="filter9_di_5_2247" x="861" y="525" width="70" height="75" filterUnits="userSpaceOnUse" color-interpolation-filters="sRGB">
<feFlood flood-opacity="0" result="BackgroundImageFix"/>
<feColorMatrix in="SourceAlpha" type="matrix" values="0 0 0 0 0 0 0 0 0 0 0 0 0 0 0 0 0 0 127 0" result="hardAlpha"/>
<feOffset dy="5"/>
<feColorMatrix type="matrix" values="0 0 0 0 0 0 0 0 0 0 0 0 0 0 0 0 0 0 1 0"/>
<feBlend mode="normal" in2="BackgroundImageFix" result="effect1_dropShadow_5_2247"/>
<feBlend mode="normal" in="SourceGraphic" in2="effect1_dropShadow_5_2247" result="shape"/>
<feColorMatrix in="SourceAlpha" type="matrix" values="0 0 0 0 0 0 0 0 0 0 0 0 0 0 0 0 0 0 127 0" result="hardAlpha"/>
<feMorphology radius="3" operator="erode" in="SourceAlpha" result="effect2_innerShadow_5_2247"/>
<feOffset dy="5"/>
<feComposite in2="hardAlpha" operator="arithmetic" k2="-1" k3="1"/>
<feColorMatrix type="matrix" values="0 0 0 0 0 0 0 0 0 0 0 0 0 0 0 0 0 0 0.5 0"/>
<feBlend mode="normal" in2="shape" result="effect2_innerShadow_5_2247"/>
</filter>
<filter id="filter10_di_5_2247" x="773" y="613" width="70" height="75" filterUnits="userSpaceOnUse" color-interpolation-filters="sRGB">
<feFlood flood-opacity="0" result="BackgroundImageFix"/>
<feColorMatrix in="SourceAlpha" type="matrix" values="0 0 0 0 0 0 0 0 0 0 0 0 0 0 0 0 0 0 127 0" result="hardAlpha"/>
<feOffset dy="5"/>
<feColorMatrix type="matrix" values="0 0 0 0 0 0 0 0 0 0 0 0 0 0 0 0 0 0 1 0"/>
<feBlend mode="normal" in2="BackgroundImageFix" result="effect1_dropShadow_5_2247"/>
<feBlend mode="normal" in="SourceGraphic" in2="effect1_dropShadow_5_2247" result="shape"/>
<feColorMatrix in="SourceAlpha" type="matrix" values="0 0 0 0 0 0 0 0 0 0 0 0 0 0 0 0 0 0 127 0" result="hardAlpha"/>
<feMorphology radius="3" operator="erode" in="SourceAlpha" result="effect2_innerShadow_5_2247"/>
<feOffset dy="5"/>
<feComposite in2="hardAlpha" operator="arithmetic" k2="-1" k3="1"/>
<feColorMatrix type="matrix" values="0 0 0 0 0 0 0 0 0 0 0 0 0 0 0 0 0 0 0.5 0"/>
<feBlend mode="normal" in2="shape" result="effect2_innerShadow_5_2247"/>
</filter>
<filter id="filter11_di_5_2247" x="685" y="613" width="70" height="75" filterUnits="userSpaceOnUse" color-interpolation-filters="sRGB">
<feFlood flood-opacity="0" result="BackgroundImageFix"/>
<feColorMatrix in="SourceAlpha" type="matrix" values="0 0 0 0 0 0 0 0 0 0 0 0 0 0 0 0 0 0 127 0" result="hardAlpha"/>
<feOffset dy="5"/>
<feColorMatrix type="matrix" values="0 0 0 0 0 0 0 0 0 0 0 0 0 0 0 0 0 0 1 0"/>
<feBlend mode="normal" in2="BackgroundImageFix" result="effect1_dropShadow_5_2247"/>
<feBlend mode="normal" in="SourceGraphic" in2="effect1_dropShadow_5_2247" result="shape"/>
<feColorMatrix in="SourceAlpha" type="matrix" values="0 0 0 0 0 0 0 0 0 0 0 0 0 0 0 0 0 0 127 0" result="hardAlpha"/>
<feMorphology radius="3" operator="erode" in="SourceAlpha" result="effect2_innerShadow_5_2247"/>
<feOffset dy="5"/>
<feComposite in2="hardAlpha" operator="arithmetic" k2="-1" k3="1"/>
<feColorMatrix type="matrix" values="0 0 0 0 0 0 0 0 0 0 0 0 0 0 0 0 0 0 0.5 0"/>
<feBlend mode="normal" in2="shape" result="effect2_innerShadow_5_2247"/>
</filter>
<filter id="filter12_di_5_2247" x="861" y="437" width="70" height="75" filterUnits="userSpaceOnUse" color-interpolation-filters="sRGB">
<feFlood flood-opacity="0" result="BackgroundImageFix"/>
<feColorMatrix in="SourceAlpha" type="matrix" values="0 0 0 0 0 0 0 0 0 0 0 0 0 0 0 0 0 0 127 0" result="hardAlpha"/>
<feOffset dy="5"/>
<feColorMatrix type="matrix" values="0 0 0 0 0 0 0 0 0 0 0 0 0 0 0 0 0 0 1 0"/>
<feBlend mode="normal" in2="BackgroundImageFix" result="effect1_dropShadow_5_2247"/>
<feBlend mode="normal" in="SourceGraphic" in2="effect1_dropShadow_5_2247" result="shape"/>
<feColorMatrix in="SourceAlpha" type="matrix" values="0 0 0 0 0 0 0 0 0 0 0 0 0 0 0 0 0 0 127 0" result="hardAlpha"/>
<feMorphology radius="3" operator="erode" in="SourceAlpha" result="effect2_innerShadow_5_2247"/>
<feOffset dy="5"/>
<feComposite in2="hardAlpha" operator="arithmetic" k2="-1" k3="1"/>
<feColorMatrix type="matrix" values="0 0 0 0 0 0 0 0 0 0 0 0 0 0 0 0 0 0 0.5 0"/>
<feBlend mode="normal" in2="shape" result="effect2_innerShadow_5_2247"/>
</filter>
<filter id="filter13_di_5_2247" x="861" y="349" width="70" height="75" filterUnits="userSpaceOnUse" color-interpolation-filters="sRGB">
<feFlood flood-opacity="0" result="BackgroundImageFix"/>
<feColorMatrix in="SourceAlpha" type="matrix" values="0 0 0 0 0 0 0 0 0 0 0 0 0 0 0 0 0 0 127 0" result="hardAlpha"/>
<feOffset dy="5"/>
<feColorMatrix type="matrix" values="0 0 0 0 0 0 0 0 0 0 0 0 0 0 0 0 0 0 1 0"/>
<feBlend mode="normal" in2="BackgroundImageFix" result="effect1_dropShadow_5_2247"/>
<feBlend mode="normal" in="SourceGraphic" in2="effect1_dropShadow_5_2247" result="shape"/>
<feColorMatrix in="SourceAlpha" type="matrix" values="0 0 0 0 0 0 0 0 0 0 0 0 0 0 0 0 0 0 127 0" result="hardAlpha"/>
<feMorphology radius="3" operator="erode" in="SourceAlpha" result="effect2_innerShadow_5_2247"/>
<feOffset dy="5"/>
<feComposite in2="hardAlpha" operator="arithmetic" k2="-1" k3="1"/>
<feColorMatrix type="matrix" values="0 0 0 0 0 0 0 0 0 0 0 0 0 0 0 0 0 0 0.5 0"/>
<feBlend mode="normal" in2="shape" result="effect2_innerShadow_5_2247"/>
</filter>
<filter id="filter14_d_5_2247" x="200" y="348" width="147" height="176" filterUnits="userSpaceOnUse" color-interpolation-filters="sRGB">
<feFlood flood-opacity="0" result="BackgroundImageFix"/>
<feColorMatrix in="SourceAlpha" type="matrix" values="0 0 0 0 0 0 0 0 0 0 0 0 0 0 0 0 0 0 127 0" result="hardAlpha"/>
<feOffset dy="10"/>
<feColorMatrix type="matrix" values="0 0 0 0 0 0 0 0 0 0 0 0 0 0 0 0 0 0 1 0"/>
<feBlend mode="normal" in2="BackgroundImageFix" result="effect1_dropShadow_5_2247"/>
<feBlend mode="normal" in="SourceGraphic" in2="effect1_dropShadow_5_2247" result="shape"/>
</filter>
<filter id="filter15_d_5_2247" x="1093" y="348" width="147" height="176" filterUnits="userSpaceOnUse" color-interpolation-filters="sRGB">
<feFlood flood-opacity="0" result="BackgroundImageFix"/>
<feColorMatrix in="SourceAlpha" type="matrix" values="0 0 0 0 0 0 0 0 0 0 0 0 0 0 0 0 0 0 127 0" result="hardAlpha"/>
<feOffset dy="10"/>
<feColorMatrix type="matrix" values="0 0 0 0 0 0 0 0 0 0 0 0 0 0 0 0 0 0 1 0"/>
<feBlend mode="normal" in2="BackgroundImageFix" result="effect1_dropShadow_5_2247"/>
<feBlend mode="normal" in="SourceGraphic" in2="effect1_dropShadow_5_2247" result="shape"/>
</filter>
<filter id="filter16_d_5_2247" x="622" y="698.684" width="197" height="164.316" filterUnits="userSpaceOnUse" color-interpolation-filters="sRGB">
<feFlood flood-opacity="0" result="BackgroundImageFix"/>
<feColorMatrix in="SourceAlpha" type="matrix" values="0 0 0 0 0 0 0 0 0 0 0 0 0 0 0 0 0 0 127 0" result="hardAlpha"/>
<feOffset dy="10"/>
<feColorMatrix type="matrix" values="0 0 0 0 0 0 0 0 0 0 0 0 0 0 0 0 0 0 1 0"/>
<feBlend mode="normal" in2="BackgroundImageFix" result="effect1_dropShadow_5_2247"/>
<feBlend mode="normal" in="SourceGraphic" in2="effect1_dropShadow_5_2247" result="shape"/>
</filter>
<filter id="filter17_d_5_2247" x="877" y="119" width="38" height="35.7731" filterUnits="userSpaceOnUse" color-interpolation-filters="sRGB">
<feFlood flood-opacity="0" result="BackgroundImageFix"/>
<feColorMatrix in="SourceAlpha" type="matrix" values="0 0 0 0 0 0 0 0 0 0 0 0 0 0 0 0 0 0 127 0" result="hardAlpha"/>
<feOffset dy="5"/>
<feColorMatrix type="matrix" values="0 0 0 0 0 0 0 0 0 0 0 0 0 0 0 0 0 0 1 0"/>
<feBlend mode="normal" in2="BackgroundImageFix" result="effect1_dropShadow_5_2247"/>
<feBlend mode="normal" in="SourceGraphic" in2="effect1_dropShadow_5_2247" result="shape"/>
</filter>
<clipPath id="clip0_5_2247">
<rect width="86" height="39" fill="white" transform="translate(404 60)"/>
</clipPath>
<clipPath id="clip1_5_2247">
<rect width="108" height="39" fill="white" transform="translate(928 60)"/>
</clipPath>
<clipPath id="clip2_5_2247">
<rect width="68" height="97" fill="white" transform="translate(1133 397)"/>
</clipPath>
</defs>
</svg>
