<svg width="1440" height="1024" viewBox="0 0 1440 1024" fill="none" xmlns="http://www.w3.org/2000/svg">
<g clip-path="url(#clip0_15_23)">
<rect width="1440" height="1024" fill="white"/>
<g clip-path="url(#clip1_15_23)">
<rect width="1440" height="1024" fill="url(#paint0_linear_15_23)"/>
<rect y="701" width="1440" height="354" fill="url(#paint1_linear_15_23)"/>
<path opacity="0.5" d="M1450.36 744.557C820.65 745.777 193.722 763.218 -41.0281 771.786C-222.218 820.791 -482.393 905.106 -73.5711 850.323C335.25 795.54 1137.13 756.375 1486.97 751.735C1510.7 747.603 1536.6 753.336 1450.36 744.557Z" fill="url(#paint2_linear_15_23)"/>
<path opacity="0.25" d="M-112.839 861.79C649.033 864.37 1407.54 901.278 1691.56 919.41C1910.78 1023.11 2225.56 1260.83 1730.94 1144.9C1236.31 1028.98 266.129 921.058 -157.134 911.24C-185.844 902.497 -217.178 880.366 -112.839 861.79Z" fill="url(#paint3_linear_15_23)"/>
<g clip-path="url(#clip2_15_23)">
<rect width="1440" height="731" fill="url(#paint4_linear_15_23)"/>
<path opacity="0.5" d="M-120.952 -76.3207C640.004 -38.8348 1395.67 41.5008 1678.38 76.983C1891.53 216.74 2192.59 528.672 1705 361.217C1217.41 193.763 254.291 14.9596 -167.99 -16.3693C-196.178 -28.6123 -226.233 -57.7428 -120.952 -76.3207Z" fill="url(#paint5_linear_15_23)"/>
<path opacity="0.5" d="M-130.839 482.845C631.033 483.502 1389.54 492.898 1673.56 497.514C1892.78 523.915 2207.56 584.434 1712.94 554.921C1218.31 525.408 248.129 497.934 -175.134 495.434C-203.844 493.209 -235.178 487.575 -130.839 482.845Z" fill="url(#paint6_linear_15_23)"/>
<path opacity="0.5" d="M1788.33 411.685C988.964 390.988 192.808 382.181 -105.349 380.364C-336.311 409.781 -668.779 482.536 -148.751 456.72C371.278 430.904 1390.18 421.312 1834.35 429.929C1864.55 427.739 1897.63 421.023 1788.33 411.685Z" fill="url(#paint7_linear_15_23)"/>
<path d="M-62.0393 499L-187 590.105V731H567L538.407 696.041L481.751 671.146L388.56 675.384L307.548 590.105L235.537 607.584L178.351 633.539L48.625 537.667L17.9143 546.142L-62.0393 499Z" fill="#151278"/>
<path d="M937.05 700.253L874 731H1499V499L1382.41 549.313L1361.89 544.122L1287.33 611.606L1209.27 596.432L1123.7 649.94L1097.68 646.346L1011.61 705.045L937.05 700.253Z" fill="#151278"/>
<circle cx="437.5" cy="103.5" r="4.5" fill="#5DA9EF"/>
<circle cx="1043.04" cy="322.848" r="4.5" transform="rotate(-15 1043.04 322.848)" fill="#5DA9EF"/>
<circle cx="104.04" cy="53.8482" r="4.5" transform="rotate(-15 104.04 53.8482)" fill="#5DA9EF"/>
<circle cx="295.5" cy="125.5" r="1.5" fill="#5DA9EF"/>
<circle cx="911.573" cy="380.851" r="1.5" transform="rotate(-15 911.573 380.851)" fill="#5DA9EF"/>
<circle cx="107.5" cy="194.5" r="1.5" fill="#5DA9EF"/>
<circle cx="747.837" cy="496.158" r="1.5" transform="rotate(-15 747.837 496.158)" fill="#5DA9EF"/>
<circle cx="993.177" cy="435.691" r="1.5" transform="rotate(-47.974 993.177 435.691)" fill="#5DA9EF"/>
<circle cx="726.76" cy="230.9" r="1.5" transform="rotate(-62.974 726.76 230.9)" fill="#5DA9EF"/>
<circle cx="918.118" cy="416.5" r="1.5" transform="rotate(-47.974 918.118 416.5)" fill="#5DA9EF"/>
<circle cx="649.292" cy="231.79" r="1.5" transform="rotate(-62.974 649.292 231.79)" fill="#5DA9EF"/>
<circle cx="184.118" cy="560.5" r="1.5" transform="rotate(-47.974 184.118 560.5)" fill="#5DA9EF"/>
<circle cx="635.5" cy="191.5" r="1.5" fill="#5DA9EF"/>
<circle cx="1257.07" cy="356.603" r="1.5" transform="rotate(-15 1257.07 356.603)" fill="#5DA9EF"/>
<circle cx="318.069" cy="87.6035" r="1.5" transform="rotate(-15 318.069 87.6035)" fill="#5DA9EF"/>
<circle cx="447.5" cy="260.5" r="1.5" fill="#5DA9EF"/>
<circle cx="1093.33" cy="471.91" r="1.5" transform="rotate(-15 1093.33 471.91)" fill="#5DA9EF"/>
<circle cx="154.334" cy="202.91" r="1.5" transform="rotate(-15 154.334 202.91)" fill="#5DA9EF"/>
<circle cx="1269.82" cy="227.309" r="1.5" transform="rotate(-47.974 1269.82 227.309)" fill="#5DA9EF"/>
<circle cx="1194.76" cy="208.118" r="1.5" transform="rotate(-47.974 1194.76 208.118)" fill="#5DA9EF"/>
<circle cx="460.765" cy="352.118" r="1.5" transform="rotate(-47.974 460.765 352.118)" fill="#5DA9EF"/>
<circle cx="1129.86" cy="556.974" r="1.5" transform="rotate(-62.974 1129.86 556.974)" fill="#5DA9EF"/>
<circle cx="190.859" cy="287.974" r="1.5" transform="rotate(-62.974 190.859 287.974)" fill="#5DA9EF"/>
<circle cx="1201.5" cy="320.5" r="4.5" fill="#5DA9EF"/>
<circle cx="898.171" cy="65.7164" r="4.5" transform="rotate(-15 898.171 65.7164)" fill="#5DA9EF"/>
<circle cx="137.5" cy="316.5" r="4.5" fill="#5DA9EF"/>
<circle cx="808.391" cy="606.236" r="4.5" transform="rotate(-15 808.391 606.236)" fill="#5DA9EF"/>
<circle cx="582.5" cy="625.5" r="4.5" fill="#5DA9EF"/>
<circle cx="379.203" cy="520.533" r="4.5" transform="rotate(-15 379.203 520.533)" fill="#5DA9EF"/>
</g>
</g>
<g filter="url(#filter0_ii_15_23)">
<rect x="424" y="313" width="592" height="500" rx="72" fill="url(#paint8_linear_15_23)"/>
</g>
<path d="M595.1 207.947L594.852 230.05L599.322 229.802C599.322 239.344 598.329 248.835 598.329 258.362C602.168 257.448 606.805 258.114 610.746 258.114C609.216 258.851 607.393 258.995 605.779 259.619C602.103 261.041 598.44 263.347 595.845 266.309C596.13 259.688 596.654 253.055 597.11 246.441C597.345 243.024 597.832 239.706 597.832 236.259H535C535 240.752 535.539 245.191 535.735 249.67C535.967 254.963 535.771 260.269 536.003 265.564C536.148 268.862 536.45 272.197 536.489 275.498C536.702 293.366 536.675 311.291 536.238 329.141C536.108 334.44 535.745 339.724 535.745 345.036H595.845V341.807C600.409 344.883 605.002 346.161 610.498 345.758C612.634 345.602 614.521 344.947 616.707 345.045C625.047 345.421 633.44 346.52 641.79 346.526V342.801H659.174C659.004 343.719 658.929 344.598 658.926 345.532C667.794 345.532 676.636 344.292 685.499 344.291C685.499 351.259 684.754 358.187 684.754 365.152C687.643 365.696 690.562 366.078 693.447 366.642C699.359 367.798 705.586 367.819 711.576 367.409C720.581 366.792 729.915 364.988 735.112 356.708C736.24 354.911 737.031 353.014 737.659 350.996C738.43 348.514 739.279 345.91 739.391 343.297C744.891 342.863 750.515 341.822 756.03 341.807C755.337 343.442 753.986 344.716 753.128 346.277C751.381 349.456 750.297 352.862 749.86 356.46C748.656 366.393 749.772 380.869 759.756 386.181C764.983 388.964 771.031 387.162 776.643 387.256C777.684 387.274 778.598 387.709 779.626 387.747C781.183 387.805 782.805 387.399 784.332 387.539C785.196 387.618 785.937 387.994 786.826 387.998C791.855 388.022 796.953 387.291 801.975 387.03C803.095 386.972 804.086 387.483 805.203 387.502C808.181 387.552 811.156 387.255 814.144 387.255V388C817.623 387.928 821.098 387.344 824.575 387.259C830.714 387.108 836.833 387.503 842.952 387.503V365.152L839.972 365.649V360.185L842.456 360.682L842.207 345.781C847.187 345.781 852.136 346.523 857.108 346.526V342.801H874.493C874.321 343.72 874.247 344.598 874.244 345.532C884.849 345.532 895.431 344.042 906.033 344.042C906.033 338.485 906.872 332.939 907.252 327.403C908.266 312.705 909.833 297.339 907.377 282.7C905.896 273.87 902.362 263.442 893.119 260.123C888.872 258.598 883.95 258.871 879.708 260.267C877.91 260.859 876.075 262.216 874.244 262.528C870.825 263.111 867.268 262.751 863.814 262.836C858.857 262.957 853.875 263.329 848.913 263.329V264.322C840.933 256.691 827.984 255.896 818.366 260.785C815.344 262.321 811.521 264.716 809.922 267.799H809.425C806.862 259.089 794.981 256.954 787.322 258.614C785.797 258.944 784.253 259.483 782.852 260.165C782.042 260.559 781.039 261.416 780.12 261.455C779.393 261.486 778.732 260.905 778.133 260.566C776.954 259.895 775.717 259.334 774.408 258.965C769.901 257.693 765.165 257.919 760.749 259.355V257.865C757.093 258.405 753.647 260.308 750.07 261.223C746.219 262.209 741.857 262.212 737.901 262.159C734.244 262.111 730.618 261.76 726.974 261.6C724.419 261.488 721.53 261.778 719.026 261.273C717.882 261.042 716.834 260.184 715.798 259.665C714.15 258.841 712.404 258.241 710.583 257.936C701.422 256.403 692.067 261.959 688.48 270.531C687.087 268.148 685.754 265.789 683.757 263.835C679.082 259.259 672.535 258.456 666.376 259.715C664.741 260.05 663.14 260.645 661.658 261.406C660.691 261.903 659.78 262.656 658.678 262.799C656.485 263.083 654.181 262.745 651.972 262.842C645.854 263.11 639.728 263.329 633.594 263.329V264.571C629.963 260.969 625.075 258.523 619.935 258.114C621.428 257.672 623.104 257.865 624.654 257.865H633.346V258.859C636.826 258.787 640.3 258.203 643.777 258.117C649.915 257.967 656.034 258.362 662.155 258.362V236.011L659.174 236.507V231.044L661.658 231.54V207.947C657.266 207.959 652.885 208.829 648.495 208.937C643.357 209.063 638.221 208.167 633.098 207.947C633.098 208.393 633.101 208.325 633.346 208.692C629.648 208.692 625.84 208.294 622.17 208.454C613.258 208.84 603.94 209.588 595.1 207.947Z" fill="#0B1524"/>
<path d="M595.1 203L594.852 225.103L599.322 224.855C599.322 234.397 598.329 243.888 598.329 253.415C602.168 252.501 606.805 253.166 610.746 253.166C609.216 253.904 607.393 254.048 605.779 254.672C602.103 256.093 598.44 258.4 595.845 261.362C596.13 254.74 596.654 248.108 597.11 241.494C597.345 238.077 597.832 234.759 597.832 231.312H535C535 235.805 535.539 240.244 535.735 244.723C535.967 250.016 535.771 255.322 536.003 260.617C536.148 263.915 536.45 267.25 536.489 270.551C536.702 288.419 536.675 306.343 536.238 324.194C536.108 329.493 535.745 334.777 535.745 340.089H595.845V336.86C600.409 339.936 605.002 341.214 610.498 340.811C612.634 340.654 614.521 340 616.707 340.098C625.047 340.474 633.44 341.573 641.79 341.579V337.853H659.174C659.004 338.772 658.929 339.651 658.926 340.585C667.794 340.585 676.636 339.344 685.499 339.343C685.499 346.311 684.754 353.24 684.754 360.205C687.643 360.749 690.562 361.131 693.447 361.695C699.359 362.851 705.586 362.872 711.576 362.462C720.581 361.845 729.915 360.041 735.112 351.761C736.24 349.964 737.031 348.067 737.659 346.049C738.43 343.566 739.279 340.963 739.391 338.35C744.891 337.916 750.515 336.875 756.03 336.86C755.337 338.495 753.986 339.769 753.128 341.33C751.381 344.508 750.297 347.915 749.86 351.513C748.656 361.446 749.772 375.922 759.756 381.234C764.983 384.016 771.031 382.215 776.643 382.309C777.684 382.326 778.598 382.762 779.626 382.8C781.183 382.858 782.805 382.452 784.332 382.592C785.196 382.671 785.937 383.046 786.826 383.051C791.855 383.075 796.953 382.344 801.975 382.083C803.095 382.024 804.086 382.536 805.203 382.555C808.181 382.605 811.156 382.308 814.144 382.308V383.053C817.623 382.981 821.098 382.397 824.575 382.312C830.714 382.161 836.833 382.556 842.952 382.556V360.205L839.972 360.701V355.238L842.456 355.734L842.207 340.834C847.187 340.834 852.136 341.575 857.108 341.579V337.853H874.493C874.321 338.773 874.247 339.651 874.244 340.585C884.849 340.585 895.431 339.095 906.033 339.095C906.033 333.538 906.872 327.992 907.252 322.456C908.266 307.758 909.833 292.392 907.377 277.753C905.896 268.923 902.362 258.495 893.119 255.176C888.872 253.651 883.95 253.924 879.708 255.32C877.91 255.912 876.075 257.269 874.244 257.581C870.825 258.163 867.268 257.804 863.814 257.889C858.857 258.01 853.875 258.382 848.913 258.382V259.375C840.933 251.744 827.984 250.949 818.366 255.838C815.344 257.374 811.521 259.769 809.922 262.852H809.425C806.862 254.142 794.981 252.006 787.322 253.667C785.797 253.997 784.253 254.536 782.852 255.218C782.042 255.612 781.039 256.469 780.12 256.508C779.393 256.539 778.732 255.958 778.133 255.618C776.954 254.948 775.717 254.387 774.408 254.018C769.901 252.746 765.165 252.972 760.749 254.408V252.918C757.093 253.458 753.647 255.361 750.07 256.276C746.219 257.261 741.857 257.265 737.901 257.212C734.244 257.163 730.618 256.813 726.974 256.653C724.419 256.541 721.53 256.831 719.026 256.326C717.882 256.095 716.834 255.236 715.798 254.718C714.15 253.894 712.404 253.294 710.583 252.989C701.422 251.456 692.067 257.011 688.48 265.584C687.087 263.2 685.754 260.842 683.757 258.888C679.082 254.312 672.535 253.509 666.376 254.768C664.741 255.103 663.14 255.698 661.658 256.459C660.691 256.956 659.78 257.709 658.678 257.852C656.485 258.136 654.181 257.798 651.972 257.895C645.854 258.163 639.728 258.382 633.594 258.382V259.624C629.963 256.022 625.075 253.575 619.935 253.166C621.428 252.725 623.104 252.918 624.654 252.918H633.346V253.911C636.826 253.84 640.3 253.255 643.777 253.17C649.915 253.02 656.034 253.415 662.155 253.415V231.063L659.174 231.56V226.096L661.658 226.593V203C657.266 203.012 652.885 203.882 648.495 203.99C643.357 204.116 638.221 203.22 633.098 203C633.098 203.446 633.101 203.378 633.346 203.745C629.648 203.745 625.84 203.347 622.17 203.506C613.258 203.893 603.94 204.641 595.1 203Z" fill="#243041"/>
<path d="M562.412 239.727C561.981 248.277 561.614 256.763 561.311 265.183C561.009 273.561 560.793 281.982 560.664 290.446C561.743 290.532 562.823 290.575 563.902 290.575C565.025 290.575 566.126 290.575 567.206 290.575C568.588 290.575 569.991 290.554 571.416 290.51C572.884 290.467 574.353 290.403 575.821 290.316C575.907 288.416 575.95 286.559 575.95 284.746C575.95 282.889 575.95 280.989 575.95 279.045C575.95 272.481 575.886 265.939 575.756 259.418C575.627 252.898 575.411 246.334 575.108 239.727H591.043C590.266 250.134 589.661 260.476 589.229 270.754C588.841 280.989 588.646 291.309 588.646 301.717C588.646 306.812 588.711 311.886 588.841 316.939C588.97 321.991 589.143 327.087 589.359 332.226H574.59C574.806 327.087 575 321.97 575.173 316.874C575.346 311.778 575.519 306.683 575.691 301.587C573.23 301.457 570.768 301.35 568.307 301.263C565.889 301.134 563.47 301.069 561.052 301.069H560.534V314.413C560.534 317.435 560.534 320.415 560.534 323.351C560.534 326.288 560.577 329.246 560.664 332.226H545.83C546.046 326.007 546.175 319.875 546.219 313.83C546.305 307.741 546.348 301.63 546.348 295.498C546.348 276.929 545.96 258.339 545.182 239.727H562.412Z" fill="url(#paint9_linear_15_23)"/>
<path d="M636.046 291.482C636.046 298.305 636.003 305.128 635.917 311.951C635.873 318.774 635.744 325.878 635.528 333.262L624.257 332.614V323.87C622.962 326.202 621.493 327.994 619.852 329.246C618.211 330.455 616.657 331.362 615.189 331.967C613.461 332.658 611.756 333.046 610.071 333.133C607.999 333.133 606.055 332.679 604.242 331.772C602.428 330.822 600.852 329.57 599.513 328.015C598.174 326.461 597.116 324.69 596.339 322.704C595.605 320.674 595.238 318.58 595.238 316.421C595.238 313.959 595.756 311.541 596.792 309.166C597.872 306.747 599.686 304.567 602.234 302.623C605.645 299.989 608.603 297.787 611.108 296.016C613.612 294.246 615.685 292.648 617.326 291.223C619.01 289.755 620.241 288.373 621.018 287.077C621.839 285.739 622.249 284.206 622.249 282.478C622.249 279.628 621.774 277.512 620.824 276.13C619.874 274.705 618.622 273.993 617.067 273.993C616.117 273.993 615.297 274.252 614.606 274.77C613.958 275.245 613.418 275.893 612.986 276.713C612.598 277.491 612.295 278.376 612.079 279.369C611.907 280.319 611.82 281.269 611.82 282.219C611.82 282.867 611.842 283.58 611.885 284.357C611.971 285.134 612.123 285.955 612.339 286.818L597.44 287.077C597.354 286.343 597.289 285.652 597.246 285.005C597.203 284.314 597.181 283.644 597.181 282.997C597.181 280.319 597.635 277.685 598.541 275.094C599.448 272.46 600.765 270.128 602.493 268.098C604.263 266.026 606.401 264.363 608.905 263.111C611.41 261.858 614.282 261.232 617.521 261.232C621.709 261.232 625.013 262.117 627.431 263.888C629.893 265.615 631.749 267.904 633.002 270.754C634.297 273.604 635.118 276.843 635.463 280.47C635.852 284.055 636.046 287.725 636.046 291.482ZM621.472 309.813C621.688 308.734 621.882 307.503 622.055 306.121C622.228 304.955 622.379 303.552 622.508 301.911C622.638 300.227 622.746 298.348 622.832 296.275C622.141 297.226 621.472 298.068 620.824 298.802C620.176 299.536 619.572 300.184 619.01 300.745C618.363 301.393 617.758 301.976 617.197 302.494C616.203 303.314 615.145 304.243 614.023 305.279C612.9 306.272 611.863 307.33 610.913 308.453C610.007 309.576 609.229 310.742 608.582 311.951C607.977 313.117 607.675 314.261 607.675 315.384C607.675 316.593 608.085 317.716 608.905 318.752C609.726 319.746 610.741 320.242 611.95 320.242C612.857 320.242 613.785 319.983 614.735 319.465C615.728 318.947 616.657 318.213 617.521 317.263C618.427 316.313 619.226 315.211 619.917 313.959C620.608 312.707 621.126 311.325 621.472 309.813Z" fill="url(#paint10_linear_15_23)"/>
<path d="M669.325 332.355C670.275 325.403 670.944 318.364 671.333 311.239C671.765 304.113 671.981 296.643 671.981 288.826C671.981 286.192 671.808 284.098 671.463 282.543C671.117 280.945 670.664 279.736 670.102 278.916C669.541 278.052 668.936 277.512 668.289 277.296C667.641 277.037 667.015 276.908 666.41 276.908C665.547 276.908 664.726 277.059 663.949 277.361C663.215 277.663 662.524 278.246 661.876 279.11C661.228 279.974 660.624 281.183 660.062 282.737C659.544 284.292 659.091 286.343 658.702 288.891C658.313 291.439 658.011 294.548 657.795 298.219C657.622 301.846 657.536 306.186 657.536 311.239C657.536 313.052 657.536 314.952 657.536 316.939C657.536 318.882 657.536 320.739 657.536 322.509C657.579 324.28 657.601 325.856 657.601 327.238C657.644 328.577 657.709 329.527 657.795 330.088L643.156 329.959C643.285 326.029 643.372 322.531 643.415 319.465C643.501 316.356 643.566 313.506 643.609 310.915C643.653 308.324 643.674 305.905 643.674 303.66C643.717 301.371 643.739 299.126 643.739 296.923C643.739 294.937 643.717 292.907 643.674 290.834C643.674 288.718 643.653 286.451 643.609 284.033C643.609 281.615 643.566 278.981 643.48 276.13C643.437 273.237 643.372 270.042 643.285 266.544L658.443 266.155L658.184 272.762C659.35 270.56 660.602 268.811 661.941 267.515C663.279 266.177 664.596 265.14 665.892 264.406C667.231 263.672 668.526 263.197 669.778 262.981C671.031 262.722 672.154 262.592 673.147 262.592C675.824 262.592 678.027 263.521 679.754 265.378C681.481 267.235 682.841 269.718 683.835 272.827C684.871 275.893 685.584 279.412 685.972 283.385C686.361 287.358 686.555 291.482 686.555 295.757C686.555 298.866 686.469 302.019 686.296 305.214C686.167 308.41 685.994 311.562 685.778 314.672C685.605 317.738 685.389 320.717 685.13 323.611C684.914 326.461 684.72 329.116 684.547 331.578L669.325 332.355Z" fill="url(#paint11_linear_15_23)"/>
<path d="M734.02 315.384C733.847 320.48 733.674 324.992 733.502 328.922C733.329 332.809 732.983 336.22 732.465 339.157C731.947 342.093 731.17 344.555 730.133 346.541C729.097 348.527 727.65 350.125 725.793 351.334C723.98 352.543 721.648 353.407 718.798 353.925C715.991 354.487 712.536 354.767 708.434 354.767C706.404 354.767 704.223 354.681 701.891 354.508C699.559 354.379 697.055 354.076 694.377 353.601L694.896 339.351C698.091 339.567 700.898 339.74 703.316 339.869C705.778 339.999 707.829 340.107 709.47 340.193C711.413 340.323 713.098 340.409 714.523 340.452C716.595 340.452 718.15 339.243 719.186 336.825C720.266 334.406 720.871 331.06 721 326.785C720.223 328.512 719.338 329.915 718.344 330.995C717.394 332.075 716.401 332.917 715.365 333.521C714.371 334.169 713.378 334.601 712.385 334.817C711.435 335.033 710.55 335.141 709.729 335.141C707.527 335.141 705.346 334.471 703.187 333.133C701.028 331.794 699.084 329.591 697.357 326.525C695.673 323.416 694.291 319.379 693.212 314.413C692.132 309.403 691.592 303.228 691.592 295.887C691.592 290.187 692.046 285.177 692.952 280.859C693.902 276.541 695.155 272.913 696.709 269.977C698.264 267.04 700.056 264.838 702.086 263.37C704.115 261.858 706.231 261.103 708.434 261.103C709.47 261.103 710.571 261.275 711.737 261.621C712.946 261.966 714.155 262.592 715.365 263.499C716.574 264.363 717.718 265.55 718.798 267.062C719.92 268.53 720.892 270.43 721.713 272.762L721.583 264.795L733.113 265.378L734.02 315.384ZM719.834 302.105C719.834 300.767 719.813 299.19 719.769 297.377C719.769 295.52 719.705 293.62 719.575 291.676C719.489 289.69 719.294 287.747 718.992 285.847C718.69 283.947 718.258 282.241 717.697 280.729C717.178 279.218 716.487 278.009 715.624 277.102C714.76 276.152 713.68 275.677 712.385 275.677C710.744 275.677 709.449 276.368 708.498 277.75C707.592 279.132 706.901 280.902 706.426 283.061C705.994 285.221 705.735 287.596 705.648 290.187C705.562 292.778 705.519 295.282 705.519 297.701C705.519 299.385 705.54 301.155 705.584 303.012C705.67 304.869 705.799 306.726 705.972 308.583C706.145 310.396 706.404 312.124 706.75 313.765C707.095 315.406 707.527 316.874 708.045 318.169C708.563 319.422 709.189 320.415 709.924 321.149C710.701 321.883 711.608 322.25 712.644 322.25C713.94 322.25 715.041 321.732 715.948 320.696C716.854 319.616 717.589 318.169 718.15 316.356C718.755 314.542 719.186 312.426 719.445 310.008C719.705 307.546 719.834 304.912 719.834 302.105Z" fill="url(#paint12_linear_15_23)"/>
<path d="M781.29 291.612C781.117 296.794 780.945 301.803 780.772 306.64C780.686 308.712 780.599 310.85 780.513 313.052C780.426 315.255 780.319 317.414 780.189 319.53C780.103 321.603 780.016 323.611 779.93 325.554C779.844 327.454 779.757 329.138 779.671 330.606L765.485 331.967C765.83 326.266 766.111 321.279 766.327 317.004C766.543 312.685 766.694 308.993 766.781 305.927C766.91 302.818 766.996 300.227 767.04 298.154C767.083 296.081 767.083 294.419 767.04 293.166C767.04 291.914 767.018 290.986 766.975 290.381C766.975 289.776 766.975 289.388 766.975 289.215C766.975 286.797 766.867 284.832 766.651 283.32C766.478 281.809 766.219 280.621 765.874 279.758C765.528 278.894 765.096 278.311 764.578 278.009C764.103 277.707 763.563 277.555 762.959 277.555C762.181 277.555 761.383 277.707 760.562 278.009C759.785 278.268 759.072 278.829 758.425 279.693C757.82 280.514 757.323 281.701 756.935 283.256C756.546 284.81 756.352 286.883 756.352 289.474C756.352 294.397 756.352 299.212 756.352 303.919C756.395 308.583 756.46 312.793 756.546 316.55C756.589 320.912 756.654 325.079 756.74 329.052L741.324 330.477C741.669 325.899 741.885 321.43 741.972 317.068C742.101 312.707 742.166 308.777 742.166 305.279C742.166 298.715 742.015 292.216 741.713 285.782C741.453 279.304 740.978 272.589 740.288 265.637C743.051 265.55 745.318 265.443 747.089 265.313C748.859 265.183 750.263 265.032 751.299 264.86C752.508 264.687 753.437 264.492 754.085 264.277L754.214 272.114C755.121 270.646 756.114 269.264 757.194 267.969C758.317 266.673 759.483 265.572 760.692 264.665C761.901 263.715 763.153 262.981 764.449 262.463C765.787 261.901 767.148 261.621 768.529 261.621C770.084 261.621 771.444 261.75 772.61 262.009C773.819 262.225 774.856 262.679 775.719 263.37C776.626 264.017 777.382 264.946 777.987 266.155C778.591 267.321 779.109 268.832 779.541 270.689C780.319 269.48 781.161 268.336 782.067 267.256C783.017 266.133 784.032 265.162 785.112 264.341C786.235 263.478 787.422 262.808 788.675 262.333C789.927 261.858 791.309 261.621 792.82 261.621C795.195 261.621 797.203 261.901 798.844 262.463C800.485 263.024 801.802 264.169 802.796 265.896C803.832 267.58 804.566 269.998 804.998 273.151C805.473 276.26 805.71 280.384 805.71 285.523C805.71 292.907 805.538 300.313 805.192 307.741C804.847 315.125 804.48 322.747 804.091 330.606L789.905 331.967C790.423 324.021 790.769 317.349 790.942 311.951C791.158 306.51 791.287 302.127 791.33 298.802C791.373 295.477 791.373 293.08 791.33 291.612C791.287 290.1 791.266 289.258 791.266 289.085C791.266 286.71 791.136 284.767 790.877 283.256C790.661 281.744 790.337 280.578 789.905 279.758C789.517 278.894 789.042 278.311 788.48 278.009C787.962 277.707 787.379 277.555 786.731 277.555C786.343 277.555 785.911 277.599 785.436 277.685C784.961 277.728 784.464 277.944 783.946 278.333C783.428 278.678 782.91 279.24 782.391 280.017C781.916 280.794 781.463 281.874 781.031 283.256C781.161 285.199 781.225 286.926 781.225 288.438C781.269 289.949 781.29 291.007 781.29 291.612Z" fill="url(#paint13_linear_15_23)"/>
<path d="M850.649 291.482C850.649 298.305 850.606 305.128 850.519 311.951C850.476 318.774 850.346 325.878 850.131 333.262L838.86 332.614V323.87C837.564 326.202 836.096 327.994 834.455 329.246C832.814 330.455 831.259 331.362 829.791 331.967C828.064 332.658 826.358 333.046 824.674 333.133C822.601 333.133 820.658 332.679 818.844 331.772C817.03 330.822 815.454 329.57 814.116 328.015C812.777 326.461 811.719 324.69 810.942 322.704C810.207 320.674 809.84 318.58 809.84 316.421C809.84 313.959 810.359 311.541 811.395 309.166C812.475 306.747 814.288 304.567 816.836 302.623C820.248 299.989 823.206 297.787 825.71 296.016C828.215 294.246 830.288 292.648 831.929 291.223C833.613 289.755 834.844 288.373 835.621 287.077C836.441 285.739 836.852 284.206 836.852 282.478C836.852 279.628 836.377 277.512 835.427 276.13C834.477 274.705 833.224 273.993 831.67 273.993C830.72 273.993 829.899 274.252 829.208 274.77C828.56 275.245 828.021 275.893 827.589 276.713C827.2 277.491 826.898 278.376 826.682 279.369C826.509 280.319 826.423 281.269 826.423 282.219C826.423 282.867 826.444 283.58 826.488 284.357C826.574 285.134 826.725 285.955 826.941 286.818L812.043 287.077C811.956 286.343 811.892 285.652 811.848 285.005C811.805 284.314 811.784 283.644 811.784 282.997C811.784 280.319 812.237 277.685 813.144 275.094C814.051 272.46 815.368 270.128 817.095 268.098C818.866 266.026 821.003 264.363 823.508 263.111C826.013 261.858 828.884 261.232 832.123 261.232C836.312 261.232 839.615 262.117 842.034 263.888C844.495 265.615 846.352 267.904 847.604 270.754C848.9 273.604 849.72 276.843 850.066 280.47C850.454 284.055 850.649 287.725 850.649 291.482ZM836.074 309.813C836.29 308.734 836.485 307.503 836.657 306.121C836.83 304.955 836.981 303.552 837.111 301.911C837.24 300.227 837.348 298.348 837.435 296.275C836.744 297.226 836.074 298.068 835.427 298.802C834.779 299.536 834.174 300.184 833.613 300.745C832.965 301.393 832.361 301.976 831.799 302.494C830.806 303.314 829.748 304.243 828.625 305.279C827.502 306.272 826.466 307.33 825.516 308.453C824.609 309.576 823.832 310.742 823.184 311.951C822.579 313.117 822.277 314.261 822.277 315.384C822.277 316.593 822.687 317.716 823.508 318.752C824.328 319.746 825.343 320.242 826.552 320.242C827.459 320.242 828.388 319.983 829.338 319.465C830.331 318.947 831.259 318.213 832.123 317.263C833.03 316.313 833.829 315.211 834.52 313.959C835.211 312.707 835.729 311.325 836.074 309.813Z" fill="url(#paint14_linear_15_23)"/>
<path d="M883.928 332.355C884.878 325.403 885.547 318.364 885.936 311.239C886.367 304.113 886.583 296.643 886.583 288.826C886.583 286.192 886.411 284.098 886.065 282.543C885.72 280.945 885.266 279.736 884.705 278.916C884.144 278.052 883.539 277.512 882.891 277.296C882.243 277.037 881.617 276.908 881.013 276.908C880.149 276.908 879.329 277.059 878.551 277.361C877.817 277.663 877.126 278.246 876.478 279.11C875.831 279.974 875.226 281.183 874.665 282.737C874.147 284.292 873.693 286.343 873.304 288.891C872.916 291.439 872.614 294.548 872.398 298.219C872.225 301.846 872.139 306.186 872.139 311.239C872.139 313.052 872.139 314.952 872.139 316.939C872.139 318.882 872.139 320.739 872.139 322.509C872.182 324.28 872.203 325.856 872.203 327.238C872.246 328.577 872.311 329.527 872.398 330.088L857.758 329.959C857.888 326.029 857.974 322.531 858.018 319.465C858.104 316.356 858.169 313.506 858.212 310.915C858.255 308.324 858.277 305.905 858.277 303.66C858.32 301.371 858.341 299.126 858.341 296.923C858.341 294.937 858.32 292.907 858.277 290.834C858.277 288.718 858.255 286.451 858.212 284.033C858.212 281.615 858.169 278.981 858.082 276.13C858.039 273.237 857.974 270.042 857.888 266.544L873.045 266.155L872.786 272.762C873.952 270.56 875.205 268.811 876.543 267.515C877.882 266.177 879.199 265.14 880.495 264.406C881.833 263.672 883.129 263.197 884.381 262.981C885.633 262.722 886.756 262.592 887.749 262.592C890.427 262.592 892.629 263.521 894.356 265.378C896.084 267.235 897.444 269.718 898.437 272.827C899.474 275.893 900.186 279.412 900.575 283.385C900.963 287.358 901.158 291.482 901.158 295.757C901.158 298.866 901.071 302.019 900.899 305.214C900.769 308.41 900.596 311.562 900.38 314.672C900.208 317.738 899.992 320.717 899.733 323.611C899.517 326.461 899.322 329.116 899.15 331.578L883.928 332.355Z" fill="url(#paint15_linear_15_23)"/>
<path d="M616.531 215.889C616.036 215.858 615.464 215.835 614.814 215.82C614.18 215.804 613.499 215.797 612.772 215.797C612.664 217.235 612.571 218.728 612.494 220.275C612.432 221.806 612.378 223.368 612.331 224.962C612.285 226.54 612.254 228.133 612.239 229.742C612.223 231.335 612.215 232.913 612.215 234.475C612.215 236.254 612.223 237.979 612.239 239.649C612.269 241.304 612.324 242.905 612.401 244.452H607.459C607.598 241.823 607.706 239.023 607.784 236.053C607.861 233.083 607.9 230.09 607.9 227.073C607.9 225.109 607.876 223.191 607.83 221.319C607.784 219.447 607.737 217.622 607.691 215.843C606.948 215.843 606.244 215.851 605.579 215.866C604.914 215.882 604.319 215.905 603.793 215.936L603.839 211.086C604.396 211.133 605.022 211.171 605.718 211.202C606.415 211.218 607.142 211.233 607.9 211.249C608.673 211.264 609.462 211.28 610.266 211.295C611.071 211.295 611.86 211.295 612.633 211.295C613.406 211.295 614.133 211.295 614.814 211.295C615.51 211.295 616.129 211.28 616.67 211.249L616.531 215.889Z" fill="white"/>
<path d="M627.051 211.04C626.897 214.103 626.765 217.142 626.657 220.159C626.549 223.16 626.471 226.176 626.425 229.208C626.812 229.239 627.198 229.254 627.585 229.254C627.987 229.254 628.382 229.254 628.768 229.254C629.263 229.254 629.766 229.247 630.277 229.231C630.802 229.216 631.328 229.192 631.854 229.162C631.885 228.481 631.901 227.816 631.901 227.166C631.901 226.501 631.901 225.82 631.901 225.124C631.901 222.773 631.878 220.429 631.831 218.094C631.785 215.758 631.707 213.407 631.599 211.04H637.307C637.029 214.768 636.812 218.473 636.657 222.154C636.518 225.82 636.449 229.517 636.449 233.245C636.449 235.071 636.472 236.888 636.518 238.698C636.565 240.508 636.626 242.333 636.704 244.174H631.413C631.491 242.333 631.56 240.5 631.622 238.675C631.684 236.849 631.746 235.024 631.808 233.199C630.926 233.152 630.045 233.114 629.163 233.083C628.297 233.036 627.43 233.013 626.564 233.013H626.378V237.793C626.378 238.876 626.378 239.943 626.378 240.995C626.378 242.047 626.394 243.107 626.425 244.174H621.111C621.189 241.946 621.235 239.75 621.251 237.584C621.281 235.403 621.297 233.214 621.297 231.018C621.297 224.366 621.158 217.707 620.879 211.04H627.051Z" fill="white"/>
<path d="M651.865 231.946C651.385 231.915 650.898 231.892 650.403 231.876C649.908 231.861 649.413 231.853 648.918 231.853C648.639 231.853 648.346 231.861 648.036 231.876C647.742 231.892 647.448 231.899 647.154 231.899L647.062 240.183C648.33 240.152 649.56 240.09 650.751 239.997C651.957 239.905 653.234 239.758 654.579 239.556V244.406C653.713 244.375 652.87 244.352 652.05 244.336C651.246 244.321 650.442 244.313 649.637 244.313C648.431 244.313 647.24 244.329 646.064 244.36C644.888 244.406 643.674 244.468 642.421 244.545C642.56 241.668 642.669 238.822 642.746 236.006C642.839 233.176 642.885 230.322 642.885 227.444C642.885 224.691 642.846 221.961 642.769 219.254C642.707 216.531 642.591 213.793 642.421 211.04C644.246 211.179 645.987 211.249 647.642 211.249C648.694 211.249 649.738 211.226 650.774 211.179C651.826 211.117 652.947 211.04 654.139 210.947V216.284C653.179 216.114 652.228 215.982 651.285 215.889C650.356 215.797 649.428 215.75 648.5 215.75H647.595C647.441 217.684 647.332 219.61 647.27 221.528C647.224 223.446 647.185 225.372 647.154 227.305C647.557 227.336 647.959 227.352 648.361 227.352C648.779 227.352 649.204 227.352 649.637 227.352C649.993 227.352 650.356 227.352 650.728 227.352C651.099 227.352 651.478 227.336 651.865 227.305V231.946Z" fill="white"/>
<path d="M772.506 357.687C772.428 358.244 772.343 358.878 772.25 359.59C772.173 360.301 772.103 361.067 772.042 361.887C771.98 362.691 771.926 363.542 771.879 364.439C771.848 365.321 771.833 366.21 771.833 367.108C771.833 367.309 771.84 367.603 771.856 367.989C771.887 368.36 771.918 368.778 771.949 369.242C771.98 369.691 772.011 370.163 772.042 370.658C772.088 371.137 772.127 371.593 772.158 372.027C772.204 372.444 772.243 372.808 772.274 373.117C772.305 373.426 772.335 373.635 772.366 373.744C771.763 374.022 771.168 374.231 770.58 374.37C769.992 374.525 769.466 374.641 769.002 374.718C768.461 374.795 767.935 374.842 767.424 374.857C766.867 374.857 766.264 374.757 765.614 374.556C764.98 374.355 764.338 374.014 763.688 373.535C763.039 373.04 762.412 372.375 761.809 371.539C761.206 370.689 760.672 369.629 760.208 368.36C759.744 367.077 759.373 365.545 759.094 363.766C758.816 361.987 758.677 359.915 758.677 357.548C758.677 355.181 758.839 353.116 759.164 351.353C759.504 349.589 759.937 348.081 760.463 346.828C761.005 345.56 761.608 344.523 762.273 343.719C762.954 342.899 763.642 342.257 764.338 341.793C765.034 341.313 765.707 340.989 766.357 340.818C767.022 340.633 767.594 340.54 768.074 340.54C768.522 340.556 768.963 340.602 769.396 340.679C769.768 340.757 770.154 340.873 770.557 341.027C770.974 341.182 771.338 341.399 771.647 341.677L771.183 346.341C770.75 346.124 770.34 345.97 769.953 345.877C769.582 345.768 769.226 345.714 768.886 345.714C768.236 345.714 767.656 345.892 767.146 346.248C766.651 346.588 766.218 347.045 765.846 347.617C765.491 348.189 765.181 348.839 764.918 349.566C764.671 350.293 764.47 351.036 764.315 351.794C763.928 353.572 763.712 355.599 763.665 357.873C763.712 359.837 763.89 361.639 764.199 363.279C764.338 363.975 764.508 364.671 764.709 365.367C764.926 366.063 765.181 366.713 765.475 367.316C765.784 367.904 766.14 368.415 766.542 368.848C766.96 369.281 767.44 369.582 767.981 369.753C767.95 367.742 767.85 365.746 767.679 363.766C767.525 361.786 767.293 359.791 766.983 357.78L772.506 357.687Z" fill="white"/>
<path d="M786.715 374.509C786.638 373.442 786.56 372.367 786.483 371.284C786.421 370.201 786.344 369.111 786.251 368.012C785.57 367.966 784.913 367.92 784.279 367.873C783.645 367.827 783.003 367.804 782.353 367.804H782.051C781.974 368.917 781.904 370.016 781.843 371.098C781.781 372.181 781.727 373.256 781.68 374.324L775.879 374.231C776.838 368.709 777.705 363.202 778.478 357.71C779.252 352.219 779.909 346.681 780.45 341.097L787.434 341.213C788.022 346.735 788.726 352.227 789.546 357.687C790.381 363.132 791.356 368.616 792.47 374.138L786.715 374.509ZM784 346.944C783.691 349.79 783.397 352.629 783.119 355.46C782.84 358.29 782.585 361.144 782.353 364.022C782.678 364.052 783.01 364.068 783.351 364.068C783.691 364.068 784.039 364.068 784.395 364.068H785.903C785.64 361.191 785.346 358.337 785.021 355.506C784.697 352.675 784.356 349.821 784 346.944Z" fill="white"/>
<path d="M812.781 374.37C812.828 372.003 812.882 369.598 812.944 367.154C812.959 366.118 812.975 365.019 812.99 363.859C813.021 362.699 813.044 361.523 813.06 360.332C813.075 359.141 813.083 357.95 813.083 356.759C813.099 355.568 813.106 354.423 813.106 353.325C813.106 352.598 813.106 351.91 813.106 351.26C813.106 350.595 813.091 349.968 813.06 349.38C812.874 350.525 812.634 352.002 812.341 353.812C812.062 355.607 811.768 357.594 811.459 359.775C811.15 361.941 810.84 364.238 810.531 366.667C810.237 369.095 809.974 371.508 809.742 373.906L805.333 373.79C804.962 371.377 804.599 369.002 804.243 366.667C803.902 364.331 803.57 362.111 803.245 360.007C802.936 357.904 802.649 355.955 802.386 354.16C802.124 352.366 801.899 350.804 801.714 349.473V357.548C801.714 359.218 801.721 360.905 801.737 362.606C801.752 364.292 801.768 365.885 801.783 367.386C801.814 368.886 801.853 370.24 801.899 371.446C801.946 372.638 802.008 373.566 802.085 374.231L795.774 374.602C796.006 373.287 796.191 371.81 796.331 370.17C796.485 368.531 796.601 366.814 796.679 365.019C796.771 363.225 796.833 361.4 796.864 359.543C796.895 357.687 796.911 355.885 796.911 354.137C796.911 352.343 796.895 350.664 796.864 349.102C796.849 347.54 796.826 346.171 796.795 344.995C796.748 343.618 796.709 342.358 796.679 341.213C797.174 341.29 797.692 341.36 798.233 341.422C798.775 341.468 799.308 341.507 799.834 341.538C800.36 341.569 800.871 341.592 801.366 341.607C801.861 341.623 802.309 341.631 802.711 341.631C802.974 341.631 803.214 341.631 803.431 341.631C803.663 341.631 803.864 341.623 804.034 341.607C804.22 341.607 804.382 341.6 804.521 341.584C805.264 346.72 805.89 351.051 806.401 354.578C806.911 358.105 807.313 360.789 807.607 362.629C807.777 361.454 807.94 360.247 808.094 359.01C808.265 357.757 808.419 356.519 808.559 355.297C808.698 354.075 808.821 352.884 808.93 351.724C809.053 350.548 809.162 349.442 809.255 348.406C809.471 345.962 809.665 343.595 809.835 341.306C810.175 341.337 810.546 341.368 810.948 341.399C811.304 341.429 811.722 341.453 812.201 341.468C812.696 341.484 813.238 341.491 813.826 341.491C814.413 341.491 815.048 341.484 815.728 341.468C816.409 341.437 817.12 341.383 817.863 341.306C817.677 347.091 817.584 352.095 817.584 356.318C817.584 359.427 817.615 362.103 817.677 364.346C817.755 366.589 817.832 368.446 817.909 369.915C818.002 371.648 818.118 373.086 818.257 374.231L812.781 374.37Z" fill="white"/>
<path d="M832.954 361.91C832.475 361.879 831.987 361.856 831.492 361.84C830.997 361.825 830.502 361.817 830.007 361.817C829.729 361.817 829.435 361.825 829.126 361.84C828.832 361.856 828.538 361.864 828.244 361.864L828.151 370.147C829.42 370.116 830.649 370.054 831.84 369.961C833.047 369.869 834.323 369.722 835.669 369.521V374.37C834.803 374.339 833.96 374.316 833.14 374.3C832.335 374.285 831.531 374.277 830.727 374.277C829.52 374.277 828.329 374.293 827.153 374.324C825.978 374.37 824.763 374.432 823.511 374.509C823.65 371.632 823.758 368.786 823.835 365.971C823.928 363.14 823.975 360.286 823.975 357.409C823.975 354.655 823.936 351.925 823.859 349.218C823.797 346.495 823.681 343.758 823.511 341.004C825.336 341.143 827.076 341.213 828.731 341.213C829.783 341.213 830.827 341.19 831.864 341.143C832.915 341.081 834.037 341.004 835.228 340.911V346.248C834.269 346.078 833.318 345.946 832.374 345.854C831.446 345.761 830.518 345.714 829.59 345.714H828.685C828.53 347.648 828.422 349.574 828.36 351.492C828.314 353.41 828.275 355.336 828.244 357.269C828.646 357.3 829.048 357.316 829.451 357.316C829.868 357.316 830.294 357.316 830.727 357.316C831.082 357.316 831.446 357.316 831.817 357.316C832.188 357.316 832.567 357.3 832.954 357.269V361.91Z" fill="white"/>
<g filter="url(#filter1_ii_15_23)">
<rect x="620" y="442" width="200" height="200" rx="100" fill="url(#paint16_linear_15_23)"/>
</g>
<g filter="url(#filter2_i_15_23)">
<path d="M690.381 544.397L690.098 542.551C687.657 526.62 686.437 518.654 691.026 514.321C695.616 509.987 703.31 511.84 718.7 515.545L720.735 516.035C741.742 521.093 752.245 523.622 753.786 531.054C755.327 538.485 746.727 545.133 729.526 558.43L727.773 559.785C713.792 570.593 706.801 575.997 700.623 573.454C694.444 570.912 693.089 562.073 690.381 544.397Z" fill="white"/>
</g>
<g filter="url(#filter3_ii_15_23)">
<rect x="589" y="700" width="260" height="62" rx="31" fill="#2463FF"/>
<path d="M658.578 720.562C658.474 722.625 658.385 724.672 658.312 726.703C658.24 728.724 658.188 730.755 658.156 732.797C658.417 732.818 658.677 732.828 658.938 732.828C659.208 732.828 659.474 732.828 659.734 732.828C660.068 732.828 660.406 732.823 660.75 732.812C661.104 732.802 661.458 732.786 661.812 732.766C661.833 732.307 661.844 731.859 661.844 731.422C661.844 730.974 661.844 730.516 661.844 730.047C661.844 728.464 661.828 726.885 661.797 725.312C661.766 723.74 661.714 722.156 661.641 720.562H665.484C665.297 723.073 665.151 725.568 665.047 728.047C664.953 730.516 664.906 733.005 664.906 735.516C664.906 736.745 664.922 737.969 664.953 739.188C664.984 740.406 665.026 741.635 665.078 742.875H661.516C661.568 741.635 661.615 740.401 661.656 739.172C661.698 737.943 661.74 736.714 661.781 735.484C661.188 735.453 660.594 735.427 660 735.406C659.417 735.375 658.833 735.359 658.25 735.359H658.125V738.578C658.125 739.307 658.125 740.026 658.125 740.734C658.125 741.443 658.135 742.156 658.156 742.875H654.578C654.63 741.375 654.661 739.896 654.672 738.438C654.693 736.969 654.703 735.495 654.703 734.016C654.703 729.536 654.609 725.052 654.422 720.562H658.578ZM679.506 732.062C679.506 734.156 679.36 735.932 679.069 737.391C678.788 738.849 678.402 740.036 677.913 740.953C677.423 741.859 676.845 742.521 676.178 742.938C675.511 743.344 674.798 743.547 674.038 743.547C673.277 743.547 672.564 743.354 671.897 742.969C671.23 742.573 670.647 741.927 670.147 741.031C669.647 740.135 669.251 738.953 668.959 737.484C668.678 736.016 668.538 734.208 668.538 732.062C668.538 729.906 668.678 728.078 668.959 726.578C669.251 725.068 669.647 723.844 670.147 722.906C670.647 721.958 671.23 721.276 671.897 720.859C672.564 720.432 673.277 720.219 674.038 720.219C674.798 720.219 675.511 720.427 676.178 720.844C676.845 721.25 677.423 721.922 677.913 722.859C678.402 723.797 678.788 725.021 679.069 726.531C679.36 728.031 679.506 729.875 679.506 732.062ZM676.022 732.062C676.022 730.427 675.97 729.047 675.866 727.922C675.761 726.797 675.616 725.885 675.428 725.188C675.251 724.479 675.043 723.969 674.803 723.656C674.564 723.344 674.308 723.188 674.038 723.188C673.756 723.188 673.491 723.349 673.241 723.672C673.001 723.984 672.788 724.495 672.6 725.203C672.423 725.901 672.282 726.818 672.178 727.953C672.074 729.078 672.022 730.448 672.022 732.062C672.022 733.667 672.074 735.016 672.178 736.109C672.282 737.193 672.423 738.068 672.6 738.734C672.788 739.391 673.001 739.859 673.241 740.141C673.491 740.422 673.756 740.562 674.038 740.562C674.308 740.562 674.564 740.417 674.803 740.125C675.043 739.823 675.251 739.339 675.428 738.672C675.616 737.995 675.761 737.115 675.866 736.031C675.97 734.948 676.022 733.625 676.022 732.062ZM698.044 721.109L695.856 743.609H691.731C691.7 742.693 691.664 741.833 691.622 741.031C691.591 740.219 691.544 739.443 691.481 738.703C691.419 737.964 691.346 737.24 691.263 736.531C691.19 735.823 691.101 735.099 690.997 734.359C690.903 733.62 690.794 732.854 690.669 732.062C690.544 731.26 690.408 730.406 690.263 729.5C690.065 730.667 689.789 732.417 689.434 734.75C689.08 737.073 688.653 739.974 688.153 743.453L683.825 743.672L682.263 721.203L686.2 721.109C686.19 721.755 686.184 722.458 686.184 723.219C686.174 723.875 686.169 724.63 686.169 725.484C686.169 726.328 686.169 727.229 686.169 728.188C686.169 728.948 686.169 729.719 686.169 730.5C686.169 731.281 686.169 732.052 686.169 732.812C686.179 733.562 686.184 734.286 686.184 734.984C686.195 735.682 686.21 736.318 686.231 736.891L688.372 723.281H691.981L693.684 736.25C693.705 735.479 693.726 734.667 693.747 733.812C693.778 732.948 693.804 732.078 693.825 731.203C693.846 730.328 693.861 729.464 693.872 728.609C693.893 727.755 693.914 726.938 693.934 726.156C693.976 724.333 694.013 722.516 694.044 720.703L698.044 721.109ZM715.431 723.828C715.098 723.807 714.713 723.792 714.275 723.781C713.848 723.771 713.39 723.766 712.9 723.766C712.827 724.734 712.765 725.74 712.713 726.781C712.671 727.812 712.634 728.865 712.603 729.938C712.572 731 712.551 732.073 712.541 733.156C712.53 734.229 712.525 735.292 712.525 736.344C712.525 737.542 712.53 738.703 712.541 739.828C712.561 740.943 712.598 742.021 712.65 743.062H709.322C709.416 741.292 709.489 739.406 709.541 737.406C709.593 735.406 709.619 733.391 709.619 731.359C709.619 730.036 709.603 728.745 709.572 727.484C709.541 726.224 709.509 724.995 709.478 723.797C708.978 723.797 708.504 723.802 708.056 723.812C707.608 723.823 707.207 723.839 706.853 723.859L706.884 720.594C707.259 720.625 707.681 720.651 708.15 720.672C708.619 720.682 709.108 720.693 709.619 720.703C710.14 720.714 710.671 720.724 711.213 720.734C711.754 720.734 712.285 720.734 712.806 720.734C713.327 720.734 713.817 720.734 714.275 720.734C714.744 720.734 715.16 720.724 715.525 720.703L715.431 723.828ZM728.719 732.062C728.719 734.156 728.573 735.932 728.281 737.391C728 738.849 727.615 740.036 727.125 740.953C726.635 741.859 726.057 742.521 725.391 742.938C724.724 743.344 724.01 743.547 723.25 743.547C722.49 743.547 721.776 743.354 721.109 742.969C720.443 742.573 719.859 741.927 719.359 741.031C718.859 740.135 718.464 738.953 718.172 737.484C717.891 736.016 717.75 734.208 717.75 732.062C717.75 729.906 717.891 728.078 718.172 726.578C718.464 725.068 718.859 723.844 719.359 722.906C719.859 721.958 720.443 721.276 721.109 720.859C721.776 720.432 722.49 720.219 723.25 720.219C724.01 720.219 724.724 720.427 725.391 720.844C726.057 721.25 726.635 721.922 727.125 722.859C727.615 723.797 728 725.021 728.281 726.531C728.573 728.031 728.719 729.875 728.719 732.062ZM725.234 732.062C725.234 730.427 725.182 729.047 725.078 727.922C724.974 726.797 724.828 725.885 724.641 725.188C724.464 724.479 724.255 723.969 724.016 723.656C723.776 723.344 723.521 723.188 723.25 723.188C722.969 723.188 722.703 723.349 722.453 723.672C722.214 723.984 722 724.495 721.812 725.203C721.635 725.901 721.495 726.818 721.391 727.953C721.286 729.078 721.234 730.448 721.234 732.062C721.234 733.667 721.286 735.016 721.391 736.109C721.495 737.193 721.635 738.068 721.812 738.734C722 739.391 722.214 739.859 722.453 740.141C722.703 740.422 722.969 740.562 723.25 740.562C723.521 740.562 723.776 740.417 724.016 740.125C724.255 739.823 724.464 739.339 724.641 738.672C724.828 737.995 724.974 737.115 725.078 736.031C725.182 734.948 725.234 733.625 725.234 732.062ZM748.184 727.484C748.184 728.38 748.065 729.26 747.825 730.125C747.596 730.979 747.236 731.771 746.747 732.5C746.268 733.229 745.658 733.875 744.919 734.438C744.179 734.99 743.304 735.411 742.294 735.703C742.315 736.964 742.341 738.214 742.372 739.453C742.414 740.682 742.46 741.906 742.512 743.125H738.7C738.867 740.76 738.986 738.396 739.059 736.031C739.143 733.667 739.184 731.286 739.184 728.891C739.184 727.505 739.174 726.125 739.153 724.75C739.132 723.365 739.091 721.969 739.028 720.562C739.58 720.396 740.137 720.286 740.7 720.234C741.273 720.182 741.757 720.156 742.153 720.156C742.434 720.156 742.778 720.188 743.184 720.25C743.601 720.312 744.028 720.438 744.466 720.625C744.914 720.802 745.356 721.057 745.794 721.391C746.242 721.714 746.643 722.151 746.997 722.703C747.351 723.245 747.637 723.906 747.856 724.688C748.075 725.469 748.184 726.401 748.184 727.484ZM742.294 733.047C742.637 732.922 742.934 732.755 743.184 732.547C743.445 732.339 743.669 732.109 743.856 731.859C744.054 731.599 744.216 731.323 744.341 731.031C744.476 730.74 744.585 730.453 744.669 730.172C744.867 729.516 744.981 728.802 745.012 728.031C745.012 728.021 745.007 727.901 744.997 727.672C744.997 727.443 744.971 727.156 744.919 726.812C744.877 726.458 744.804 726.073 744.7 725.656C744.596 725.229 744.45 724.823 744.262 724.438C744.085 724.052 743.851 723.708 743.559 723.406C743.278 723.094 742.929 722.875 742.512 722.75C742.429 724.365 742.372 725.984 742.341 727.609C742.309 729.224 742.294 730.854 742.294 732.5V733.047ZM759.284 743.031C758.701 743.01 758.133 742.995 757.581 742.984C757.04 742.974 756.498 742.969 755.956 742.969C755.144 742.969 754.342 742.979 753.55 743C752.758 743.031 751.941 743.073 751.097 743.125C751.191 741.188 751.264 739.271 751.316 737.375C751.378 735.469 751.409 733.547 751.409 731.609C751.409 729.755 751.383 727.917 751.331 726.094C751.29 724.26 751.211 722.417 751.097 720.562C751.201 720.573 751.321 720.578 751.456 720.578C751.571 720.589 751.711 720.594 751.878 720.594C752.045 720.594 752.232 720.594 752.441 720.594C752.774 720.594 753.133 720.589 753.519 720.578C753.915 720.557 754.31 720.531 754.706 720.5C754.571 722 754.472 723.578 754.409 725.234C754.357 726.891 754.321 728.568 754.3 730.266C754.29 731.953 754.279 733.641 754.269 735.328C754.269 737.005 754.253 738.625 754.222 740.188C755.076 740.167 755.904 740.125 756.706 740.062C757.519 740 758.378 739.901 759.284 739.766V743.031ZM768.525 743.125C768.473 742.406 768.421 741.682 768.369 740.953C768.327 740.224 768.275 739.49 768.213 738.75C767.754 738.719 767.311 738.688 766.884 738.656C766.457 738.625 766.025 738.609 765.588 738.609H765.384C765.332 739.359 765.285 740.099 765.244 740.828C765.202 741.557 765.166 742.281 765.134 743L761.228 742.938C761.874 739.219 762.457 735.51 762.978 731.812C763.499 728.115 763.942 724.385 764.306 720.625L769.009 720.703C769.405 724.422 769.879 728.12 770.431 731.797C770.994 735.464 771.65 739.156 772.4 742.875L768.525 743.125ZM766.697 724.562C766.489 726.479 766.291 728.391 766.103 730.297C765.916 732.203 765.744 734.125 765.588 736.062C765.806 736.083 766.03 736.094 766.259 736.094C766.489 736.094 766.723 736.094 766.963 736.094H767.978C767.801 734.156 767.603 732.234 767.384 730.328C767.166 728.422 766.936 726.5 766.697 724.562ZM784.812 720.594C783.979 723.24 783.198 725.911 782.469 728.609C781.75 731.297 781.068 733.896 780.422 736.406V737.375C780.422 737.896 780.427 738.391 780.438 738.859C780.458 739.318 780.479 739.776 780.5 740.234C780.521 740.682 780.547 741.146 780.578 741.625C780.62 742.094 780.667 742.594 780.719 743.125H776.969C777.052 742.479 777.125 741.88 777.188 741.328C777.25 740.766 777.297 740.214 777.328 739.672C777.37 739.13 777.401 738.573 777.422 738C777.443 737.427 777.453 736.802 777.453 736.125C777.161 734.927 776.854 733.682 776.531 732.391C776.219 731.099 775.896 729.802 775.562 728.5C775.229 727.198 774.896 725.906 774.562 724.625C774.229 723.333 773.901 722.089 773.578 720.891L777.484 720.562C777.526 721.417 777.594 722.323 777.688 723.281C777.792 724.229 777.911 725.198 778.047 726.188C778.182 727.177 778.333 728.177 778.5 729.188C778.667 730.198 778.839 731.188 779.016 732.156C779.214 731.167 779.406 730.161 779.594 729.141C779.792 728.109 779.974 727.094 780.141 726.094C780.307 725.094 780.458 724.12 780.594 723.172C780.74 722.224 780.865 721.333 780.969 720.5L784.812 720.594Z" fill="white"/>
</g>
</g>
<defs>
<filter id="filter0_ii_15_23" x="424" y="309" width="592" height="510" filterUnits="userSpaceOnUse" color-interpolation-filters="sRGB">
<feFlood flood-opacity="0" result="BackgroundImageFix"/>
<feBlend mode="normal" in="SourceGraphic" in2="BackgroundImageFix" result="shape"/>
<feColorMatrix in="SourceAlpha" type="matrix" values="0 0 0 0 0 0 0 0 0 0 0 0 0 0 0 0 0 0 127 0" result="hardAlpha"/>
<feMorphology radius="8" operator="erode" in="SourceAlpha" result="effect1_innerShadow_15_23"/>
<feOffset dy="6"/>
<feComposite in2="hardAlpha" operator="arithmetic" k2="-1" k3="1"/>
<feColorMatrix type="matrix" values="0 0 0 0 0.141667 0 0 0 0 0.386905 0 0 0 0 1 0 0 0 1 0"/>
<feBlend mode="normal" in2="shape" result="effect1_innerShadow_15_23"/>
<feColorMatrix in="SourceAlpha" type="matrix" values="0 0 0 0 0 0 0 0 0 0 0 0 0 0 0 0 0 0 127 0" result="hardAlpha"/>
<feMorphology radius="4" operator="erode" in="SourceAlpha" result="effect2_innerShadow_15_23"/>
<feOffset dy="-8"/>
<feComposite in2="hardAlpha" operator="arithmetic" k2="-1" k3="1"/>
<feColorMatrix type="matrix" values="0 0 0 0 0.0784314 0 0 0 0 0.054902 0 0 0 0 0.4 0 0 0 1 0"/>
<feBlend mode="normal" in2="effect1_innerShadow_15_23" result="effect2_innerShadow_15_23"/>
</filter>
<filter id="filter1_ii_15_23" x="620" y="431" width="200" height="211" filterUnits="userSpaceOnUse" color-interpolation-filters="sRGB">
<feFlood flood-opacity="0" result="BackgroundImageFix"/>
<feBlend mode="normal" in="SourceGraphic" in2="BackgroundImageFix" result="shape"/>
<feColorMatrix in="SourceAlpha" type="matrix" values="0 0 0 0 0 0 0 0 0 0 0 0 0 0 0 0 0 0 127 0" result="hardAlpha"/>
<feMorphology radius="11" operator="erode" in="SourceAlpha" result="effect1_innerShadow_15_23"/>
<feOffset dy="-12"/>
<feComposite in2="hardAlpha" operator="arithmetic" k2="-1" k3="1"/>
<feColorMatrix type="matrix" values="0 0 0 0 0.616642 0 0 0 0 0.176458 0 0 0 0 0.9625 0 0 0 1 0"/>
<feBlend mode="normal" in2="shape" result="effect1_innerShadow_15_23"/>
<feColorMatrix in="SourceAlpha" type="matrix" values="0 0 0 0 0 0 0 0 0 0 0 0 0 0 0 0 0 0 127 0" result="hardAlpha"/>
<feMorphology radius="5" operator="erode" in="SourceAlpha" result="effect2_innerShadow_15_23"/>
<feOffset dy="-4"/>
<feComposite in2="hardAlpha" operator="arithmetic" k2="-1" k3="1"/>
<feColorMatrix type="matrix" values="0 0 0 0 0.141176 0 0 0 0 0.188235 0 0 0 0 0.254902 0 0 0 1 0"/>
<feBlend mode="normal" in2="effect1_innerShadow_15_23" result="effect2_innerShadow_15_23"/>
</filter>
<filter id="filter2_i_15_23" x="687.925" y="511.811" width="66.0377" height="62.2642" filterUnits="userSpaceOnUse" color-interpolation-filters="sRGB">
<feFlood flood-opacity="0" result="BackgroundImageFix"/>
<feBlend mode="normal" in="SourceGraphic" in2="BackgroundImageFix" result="shape"/>
<feColorMatrix in="SourceAlpha" type="matrix" values="0 0 0 0 0 0 0 0 0 0 0 0 0 0 0 0 0 0 127 0" result="hardAlpha"/>
<feOffset dy="-6"/>
<feComposite in2="hardAlpha" operator="arithmetic" k2="-1" k3="1"/>
<feColorMatrix type="matrix" values="0 0 0 0 0.141176 0 0 0 0 0.188235 0 0 0 0 0.254902 0 0 0 1 0"/>
<feBlend mode="normal" in2="shape" result="effect1_innerShadow_15_23"/>
</filter>
<filter id="filter3_ii_15_23" x="589" y="698" width="260" height="65" filterUnits="userSpaceOnUse" color-interpolation-filters="sRGB">
<feFlood flood-opacity="0" result="BackgroundImageFix"/>
<feBlend mode="normal" in="SourceGraphic" in2="BackgroundImageFix" result="shape"/>
<feColorMatrix in="SourceAlpha" type="matrix" values="0 0 0 0 0 0 0 0 0 0 0 0 0 0 0 0 0 0 127 0" result="hardAlpha"/>
<feMorphology radius="6" operator="erode" in="SourceAlpha" result="effect1_innerShadow_15_23"/>
<feOffset dy="1"/>
<feComposite in2="hardAlpha" operator="arithmetic" k2="-1" k3="1"/>
<feColorMatrix type="matrix" values="0 0 0 0 0.233333 0 0 0 0 0.453882 0 0 0 0 1 0 0 0 1 0"/>
<feBlend mode="normal" in2="shape" result="effect1_innerShadow_15_23"/>
<feColorMatrix in="SourceAlpha" type="matrix" values="0 0 0 0 0 0 0 0 0 0 0 0 0 0 0 0 0 0 127 0" result="hardAlpha"/>
<feMorphology radius="3" operator="erode" in="SourceAlpha" result="effect2_innerShadow_15_23"/>
<feOffset dy="-2"/>
<feComposite in2="hardAlpha" operator="arithmetic" k2="-1" k3="1"/>
<feColorMatrix type="matrix" values="0 0 0 0 0.0784314 0 0 0 0 0.054902 0 0 0 0 0.4 0 0 0 1 0"/>
<feBlend mode="normal" in2="effect1_innerShadow_15_23" result="effect2_innerShadow_15_23"/>
</filter>
<linearGradient id="paint0_linear_15_23" x1="720" y1="0" x2="720" y2="1024" gradientUnits="userSpaceOnUse">
<stop stop-color="#190131"/>
<stop offset="1" stop-color="#282B96"/>
</linearGradient>
<linearGradient id="paint1_linear_15_23" x1="720" y1="701" x2="720" y2="1055" gradientUnits="userSpaceOnUse">
<stop stop-color="#3522A0"/>
<stop offset="0.31" stop-color="#2C187F"/>
<stop offset="1" stop-color="#190334"/>
</linearGradient>
<linearGradient id="paint2_linear_15_23" x1="609.5" y1="744.557" x2="609.5" y2="868.17" gradientUnits="userSpaceOnUse">
<stop stop-color="#3931C1"/>
<stop offset="1" stop-color="#3931C1" stop-opacity="0"/>
</linearGradient>
<linearGradient id="paint3_linear_15_23" x1="904.5" y1="861.79" x2="904.5" y2="1123.37" gradientUnits="userSpaceOnUse">
<stop stop-color="#3931C1"/>
<stop offset="1" stop-color="#3931C1" stop-opacity="0"/>
</linearGradient>
<linearGradient id="paint4_linear_15_23" x1="720" y1="0" x2="720" y2="731" gradientUnits="userSpaceOnUse">
<stop stop-color="#1A0337"/>
<stop offset="0.335129" stop-color="#131381"/>
<stop offset="1" stop-color="#35B6FF"/>
</linearGradient>
<linearGradient id="paint5_linear_15_23" x1="-12.9128" y1="-89.4763" x2="1516.18" y2="343.21" gradientUnits="userSpaceOnUse">
<stop stop-color="#4531C1"/>
<stop offset="1" stop-color="#7931C1" stop-opacity="0"/>
</linearGradient>
<linearGradient id="paint6_linear_15_23" x1="-23.5" y1="479.191" x2="674.295" y2="1286.76" gradientUnits="userSpaceOnUse">
<stop stop-color="#7966FF"/>
<stop offset="0.0001" stop-color="#66C8FF"/>
<stop offset="1" stop-color="#3A88E1"/>
</linearGradient>
<linearGradient id="paint7_linear_15_23" x1="1675.85" y1="403.713" x2="706.384" y2="1229.75" gradientUnits="userSpaceOnUse">
<stop stop-color="#2772CB"/>
<stop offset="1" stop-color="#45A0E8"/>
</linearGradient>
<linearGradient id="paint8_linear_15_23" x1="720" y1="313" x2="720" y2="813" gradientUnits="userSpaceOnUse">
<stop stop-color="#344ABA"/>
<stop offset="1" stop-color="#001479" stop-opacity="0.83"/>
</linearGradient>
<linearGradient id="paint9_linear_15_23" x1="722.749" y1="231.203" x2="722.749" y2="364.424" gradientUnits="userSpaceOnUse">
<stop stop-color="#67B6FF"/>
<stop offset="1" stop-color="white"/>
</linearGradient>
<linearGradient id="paint10_linear_15_23" x1="722.749" y1="231.203" x2="722.749" y2="364.424" gradientUnits="userSpaceOnUse">
<stop stop-color="#67B6FF"/>
<stop offset="1" stop-color="white"/>
</linearGradient>
<linearGradient id="paint11_linear_15_23" x1="722.749" y1="231.203" x2="722.749" y2="364.424" gradientUnits="userSpaceOnUse">
<stop stop-color="#67B6FF"/>
<stop offset="1" stop-color="white"/>
</linearGradient>
<linearGradient id="paint12_linear_15_23" x1="722.749" y1="231.203" x2="722.749" y2="364.424" gradientUnits="userSpaceOnUse">
<stop stop-color="#67B6FF"/>
<stop offset="1" stop-color="white"/>
</linearGradient>
<linearGradient id="paint13_linear_15_23" x1="722.749" y1="231.203" x2="722.749" y2="364.424" gradientUnits="userSpaceOnUse">
<stop stop-color="#67B6FF"/>
<stop offset="1" stop-color="white"/>
</linearGradient>
<linearGradient id="paint14_linear_15_23" x1="722.749" y1="231.203" x2="722.749" y2="364.424" gradientUnits="userSpaceOnUse">
<stop stop-color="#67B6FF"/>
<stop offset="1" stop-color="white"/>
</linearGradient>
<linearGradient id="paint15_linear_15_23" x1="722.749" y1="231.203" x2="722.749" y2="364.424" gradientUnits="userSpaceOnUse">
<stop stop-color="#67B6FF"/>
<stop offset="1" stop-color="white"/>
</linearGradient>
<linearGradient id="paint16_linear_15_23" x1="720" y1="474.836" x2="720" y2="642" gradientUnits="userSpaceOnUse">
<stop stop-color="#FE71FE"/>
<stop offset="1" stop-color="#7199FF"/>
</linearGradient>
<clipPath id="clip0_15_23">
<rect width="1440" height="1024" fill="white"/>
</clipPath>
<clipPath id="clip1_15_23">
<rect width="1440" height="1024" fill="white"/>
</clipPath>
<clipPath id="clip2_15_23">
<rect width="1440" height="731" fill="white"/>
</clipPath>
</defs>
</svg>
